<?xml version="1.0" standalone="no"?>
<!DOCTYPE svg PUBLIC "-//W3C//DTD SVG 20010904//EN"
 "http://www.w3.org/TR/2001/REC-SVG-20010904/DTD/svg10.dtd">
<svg version="1.0" xmlns="http://www.w3.org/2000/svg"
 width="692.000000pt" height="684.000000pt" viewBox="0 0 692.000000 684.000000"
 preserveAspectRatio="xMidYMid meet">

<g transform="translate(0.000000,684.000000) scale(0.100000,-0.100000)"
fill="#000000" stroke="none">
<path d="M3300 5803 c0 -5 9 -18 20 -28 11 -10 20 -14 20 -8 0 5 -9 18 -20 28
-11 10 -20 14 -20 8z"/>
<path d="M3250 5796 c0 -2 9 -6 20 -9 11 -3 20 -1 20 4 0 5 -9 9 -20 9 -11 0
-20 -2 -20 -4z"/>
<path d="M3170 5751 c-12 -24 -13 -31 -1 -31 5 0 11 11 13 25 6 30 2 32 -12 6z"/>
<path d="M3285 5746 c17 -12 17 -15 2 -36 -28 -41 -85 -30 -71 13 4 13 3 17
-6 12 -15 -9 -2 -66 19 -81 16 -13 28 -9 69 23 18 15 21 24 16 51 -5 24 -12
32 -27 32 -20 0 -20 -1 -2 -14z"/>
<path d="M4180 5740 c-9 -6 -10 -10 -3 -10 6 0 15 5 18 10 8 12 4 12 -15 0z"/>
<path d="M4327 5740 c18 -26 23 -63 10 -79 -11 -14 -10 -14 5 -2 21 15 15 57
-10 81 -14 13 -15 13 -5 0z"/>
<path d="M4277 5729 c7 -7 15 -10 18 -7 3 3 -2 9 -12 12 -14 6 -15 5 -6 -5z"/>
<path d="M3245 5720 c3 -5 8 -10 11 -10 2 0 4 5 4 10 0 6 -5 10 -11 10 -5 0
-7 -4 -4 -10z"/>
<path d="M4134 5708 l-19 -23 23 19 c21 18 27 26 19 26 -2 0 -12 -10 -23 -22z"/>
<path d="M4081 5664 c-1 -33 20 -59 41 -51 8 4 7 6 -4 6 -21 1 -22 13 -7 44 9
21 9 21 -5 4 -14 -18 -15 -18 -19 5 -3 18 -5 17 -6 -8z"/>
<path d="M4180 5659 c0 -5 5 -7 10 -4 6 3 10 8 10 11 0 2 -4 4 -10 4 -5 0 -10
-5 -10 -11z"/>
<path d="M3133 5640 c1 -19 8 -26 27 -27 21 -2 22 -1 6 5 -11 5 -23 17 -28 28
-6 16 -7 15 -5 -6z"/>
<path d="M4217 5630 c-3 -11 -2 -20 3 -20 4 0 10 9 13 20 3 11 2 20 -3 20 -4
0 -10 -9 -13 -20z"/>
<path d="M4255 5630 c-19 -8 -19 -9 3 -9 12 -1 22 4 22 9 0 6 -1 10 -2 9 -2 0
-12 -4 -23 -9z"/>
<path d="M4170 5620 l-25 -8 28 -1 c15 -1 27 4 27 9 0 6 -1 10 -2 9 -2 -1 -14
-5 -28 -9z"/>
<path d="M3560 5586 c0 -3 9 -10 20 -16 11 -6 20 -8 20 -6 0 3 -9 10 -20 16
-11 6 -20 8 -20 6z"/>
<path d="M3700 5510 c8 -5 20 -10 25 -10 6 0 3 5 -5 10 -8 5 -19 10 -25 10 -5
0 -3 -5 5 -10z"/>
<path d="M4758 5476 c-46 -24 -146 -64 -222 -90 -77 -26 -144 -50 -150 -54
-13 -8 -78 -32 -88 -32 -5 0 -8 9 -8 20 0 11 -7 23 -15 26 -8 3 -17 14 -20 25
-8 24 -55 49 -91 49 -39 0 -101 -59 -99 -94 0 -16 -5 -35 -12 -44 -18 -24 -16
-46 7 -75 15 -19 17 -27 7 -35 -42 -34 -324 -182 -346 -182 -21 0 -79 -80 -86
-118 -14 -86 20 -178 115 -304 30 -40 64 -89 74 -108 10 -19 33 -55 50 -80 18
-25 45 -83 60 -130 16 -47 64 -153 107 -237 79 -152 79 -152 81 -235 l2 -83 3
68 c2 37 8 67 12 67 4 0 16 -9 26 -20 10 -11 36 -25 57 -32 l40 -12 -5 -45 -5
-46 10 46 c11 47 11 47 61 52 27 4 66 15 86 25 l36 19 -3 -66 c-1 -36 -2 -99
-3 -140 0 -51 -7 -97 -23 -145 -13 -39 -29 -118 -35 -176 -7 -58 -14 -118 -16
-133 -6 -35 17 -91 41 -105 11 -6 17 -13 14 -15 -3 -3 -104 -2 -226 2 -233 6
-297 0 -333 -33 -28 -25 -28 -84 0 -138 14 -28 23 -67 26 -117 2 -42 13 -113
24 -158 10 -45 19 -95 19 -112 0 -16 9 -78 21 -137 20 -107 52 -187 89 -224
37 -37 145 -19 217 36 26 20 37 23 52 15 11 -6 21 -14 23 -18 6 -16 68 -53 86
-53 15 0 21 -12 30 -52 17 -81 30 -164 42 -273 6 -55 18 -161 27 -235 24 -204
31 -182 -59 -184 -69 -1 -80 -4 -104 -27 -21 -22 -24 -30 -15 -46 8 -16 6 -24
-9 -38 -28 -25 -26 -71 3 -86 21 -12 21 -11 5 8 -39 43 -12 84 65 97 47 9 47
2 -1 -23 -21 -11 -44 -27 -51 -35 -22 -26 8 -20 52 10 21 14 41 23 44 20 4 -3
13 0 22 7 14 11 14 10 3 -5 -8 -10 -17 -16 -20 -15 -4 1 -27 -13 -51 -31 -24
-17 -40 -32 -36 -32 4 0 23 11 41 25 37 28 46 31 38 11 -3 -7 2 -16 11 -20 12
-4 27 5 49 28 17 18 46 41 63 50 18 9 35 26 38 39 3 12 -8 65 -25 117 -21 65
-36 139 -46 235 -9 77 -19 142 -23 145 -4 3 -13 43 -19 90 -7 47 -17 115 -24
153 -12 65 -11 68 10 83 37 26 55 72 49 126 l-6 48 38 0 c55 0 83 26 91 86 4
27 19 103 33 169 22 99 37 256 37 382 0 4 5 2 12 -5 7 -7 16 -39 20 -72 4 -33
12 -87 16 -121 7 -52 13 -65 40 -88 31 -25 32 -29 32 -97 0 -58 4 -74 21 -93
32 -34 53 -39 228 -52 88 -7 165 -16 171 -19 16 -10 -33 -90 -96 -156 -40 -43
-54 -65 -52 -83 4 -33 30 -48 60 -33 22 11 21 11 -7 6 l-30 -6 25 14 c17 9 31
32 45 73 22 68 23 70 30 63 6 -6 -24 -98 -39 -117 -7 -9 -7 -15 -1 -18 6 -2 9
-23 7 -47 -3 -36 0 -46 16 -55 29 -16 50 6 70 74 16 54 20 59 47 60 41 0 51
37 30 108 -36 126 -70 144 -295 156 -80 5 -157 14 -172 21 -33 16 -47 55 -46
132 1 49 4 57 22 62 16 4 83 79 101 114 1 1 21 -5 45 -13 23 -8 46 -12 52 -9
5 3 14 2 21 -3 19 -14 108 -41 158 -48 39 -5 49 -2 71 18 29 27 62 88 114 210
20 46 58 108 92 150 58 71 102 139 102 157 0 5 15 42 34 82 19 40 39 92 45
114 6 23 27 76 46 118 35 75 35 76 19 108 -22 43 -40 55 -89 63 -67 10 -135
42 -256 122 -19 13 -41 23 -47 23 -7 0 -25 9 -40 20 -34 24 -177 63 -352 95
-74 14 -138 25 -142 25 -5 0 -8 4 -8 9 0 5 30 21 68 37 37 16 81 36 97 46 17
10 53 29 80 44 28 15 75 43 105 62 30 20 76 46 103 59 58 27 72 57 58 122 -6
25 -13 63 -16 84 -3 21 -10 35 -14 32 -9 -5 2 -78 20 -132 6 -18 8 -37 4 -43
-10 -16 -235 -163 -241 -157 -3 3 5 21 19 39 62 83 76 248 38 428 -11 52 -25
156 -30 230 -8 121 -20 186 -66 380 -20 84 -13 81 63 -29 88 -127 92 -135 92
-173 0 -21 5 -38 10 -38 15 0 12 45 -5 86 -8 20 -32 57 -54 83 -21 25 -45 60
-54 76 -8 17 -29 43 -46 60 -21 19 -38 51 -51 95 -23 72 -37 95 -77 122 -45
29 -93 23 -185 -26z m160 -12 c31 -21 43 -49 53 -113 4 -31 17 -117 28 -191
11 -74 25 -196 30 -270 6 -85 18 -170 34 -230 44 -164 52 -213 51 -295 -1 -99
-28 -176 -81 -227 -35 -34 -49 -39 -160 -63 -67 -14 -139 -33 -160 -41 -27
-12 -54 -15 -95 -10 -32 3 -71 3 -88 0 -34 -7 -41 -34 -10 -34 18 0 15 -5 -15
-31 -20 -18 -42 -44 -50 -59 -17 -34 -89 -76 -145 -85 l-40 -7 0 40 c0 87 7
98 84 141 75 42 222 140 382 256 53 39 123 86 157 106 33 20 68 47 76 60 14
22 13 22 -11 -3 -27 -28 -108 -74 -108 -61 0 5 27 30 60 57 50 40 63 57 73 94
l12 46 6 -34 c5 -26 7 -16 8 35 0 39 -4 86 -10 105 -17 58 -59 303 -78 459 -7
55 -21 106 -41 151 -34 71 -67 100 -117 100 -58 0 -437 -203 -584 -313 -31
-23 -100 -75 -155 -116 -166 -124 -194 -157 -194 -231 0 -92 180 -463 302
-622 27 -35 28 -37 15 -87 -7 -29 -17 -52 -23 -53 -15 -1 -127 222 -159 318
-16 49 -44 110 -62 136 -18 26 -33 50 -33 53 0 10 -88 138 -130 190 -53 66
-71 108 -78 177 -8 95 15 128 128 178 30 13 62 29 70 36 8 6 56 32 105 59 50
26 95 51 101 56 6 5 34 16 61 24 28 8 62 24 77 36 14 11 30 18 35 15 12 -8
243 87 330 137 20 11 68 33 106 49 39 17 95 41 125 54 65 28 88 29 118 8z m83
-79 c5 -22 19 -67 30 -100 17 -52 33 -120 69 -300 4 -22 11 -94 14 -160 4 -66
13 -147 21 -180 26 -107 36 -228 26 -300 -6 -37 -11 -69 -13 -70 -2 -2 -4 45
-4 103 -1 81 -8 130 -27 202 -14 52 -33 120 -41 150 -8 30 -20 134 -26 230 -7
96 -18 209 -26 250 -22 123 -42 208 -54 232 -11 22 -11 22 5 3 8 -11 20 -38
26 -60z m-841 -55 c-24 -15 -37 -11 -16 5 11 8 22 12 25 9 3 -3 -1 -9 -9 -14z
m320 -3 c-180 -81 -222 -98 -227 -93 -9 9 208 105 237 105 8 0 4 -5 -10 -12z
m343 -14 c27 -30 57 -112 63 -171 3 -32 14 -95 24 -142 20 -88 56 -407 53
-472 -1 -44 -14 -64 -73 -113 -71 -58 -140 -116 -199 -168 -30 -26 -72 -58
-92 -70 -21 -12 -59 -35 -84 -52 -128 -84 -224 -145 -229 -145 -2 0 -7 10 -9
23 -4 19 -4 18 -6 -5 -1 -34 -11 -35 -38 -5 -41 44 -45 62 -21 93 l22 29 -26
-23 -26 -24 -49 60 c-83 100 -179 277 -258 476 -45 115 -19 188 93 261 31 21
122 86 202 145 233 172 349 242 495 299 66 25 137 27 158 4z m-743 -69 c0 -8
-4 -12 -10 -9 -5 3 -10 10 -10 16 0 5 5 9 10 9 6 0 10 -7 10 -16z m80 -4 c-8
-5 -19 -10 -25 -10 -5 0 -3 5 5 10 8 5 20 10 25 10 6 0 3 -5 -5 -10z m830
-643 c0 -23 -4 -36 -10 -32 -5 3 -10 27 -10 53 0 34 3 43 10 32 5 -8 10 -32
10 -53z m-90 -546 c-17 -10 -131 -41 -151 -41 -27 0 8 20 61 34 63 17 114 21
90 7z m-655 -101 c24 0 24 -1 18 -67 -3 -38 -7 -70 -9 -72 -8 -9 -67 24 -90
52 -23 27 -25 36 -19 76 4 25 11 54 17 65 9 16 12 15 34 -18 17 -25 32 -36 49
-36z m340 21 c-3 -5 -26 -21 -51 -35 -31 -17 -42 -20 -33 -9 25 30 100 69 84
44z m175 -10 c0 -5 -7 -11 -15 -15 -9 -3 -15 0 -15 9 0 8 7 15 15 15 8 0 15
-4 15 -9z m-91 -8 c-1 -12 -79 -76 -85 -71 -7 8 61 78 75 78 6 0 11 -3 10 -7z
m157 -16 c-37 -23 -58 -49 -53 -67 3 -13 -2 -19 -19 -23 -31 -6 -30 5 6 59 24
34 37 44 58 43 25 0 26 -1 8 -12z m93 -6 c11 -7 4 -15 -27 -35 -22 -14 -43
-30 -47 -36 -3 -5 -10 -10 -15 -10 -5 0 5 20 22 45 33 46 42 51 67 36z m-264
-55 c-21 -24 -51 -54 -67 -66 -55 -40 -41 -11 26 56 74 74 99 80 41 10z m195
36 c0 -16 -49 -54 -60 -47 -8 5 -5 15 11 31 22 23 49 32 49 16z m158 -4 c-3
-7 -12 -14 -21 -16 -12 -2 -15 1 -11 12 7 19 38 22 32 4z m-298 -33 c-18 -19
-36 -32 -39 -30 -6 7 50 65 63 65 5 0 -5 -16 -24 -35z m228 3 c-15 -22 -68
-38 -68 -21 0 10 50 41 69 42 11 1 11 -3 -1 -21z m172 14 c0 -4 -13 -13 -30
-19 -31 -12 -39 -6 -18 15 13 13 48 16 48 4z m75 -21 c-6 -4 -25 -13 -42 -19
-36 -12 -54 1 -26 17 22 13 81 15 68 2z m70 -21 c-3 -5 -16 -10 -28 -10 -18 0
-19 2 -7 10 20 13 43 13 35 0z m83 -37 c5 -18 -10 -16 -34 2 -18 15 -18 15 5
13 14 -2 26 -9 29 -15z m-823 -33 c-9 -17 -20 -28 -26 -24 -6 4 -2 15 12 30
30 32 33 30 14 -6z m415 0 c19 -5 50 -10 68 -10 32 0 279 -55 379 -85 58 -17
108 -61 129 -112 8 -18 14 -61 14 -97 l0 -64 -77 -103 c-42 -57 -108 -142
-147 -189 -39 -47 -89 -115 -111 -152 -55 -93 -85 -101 -195 -49 -36 17 -74
36 -85 43 -102 63 -153 95 -167 103 -70 43 -162 111 -175 131 -9 14 -18 23
-20 20 -10 -9 20 -48 59 -76 50 -36 40 -39 -18 -5 -64 38 -66 56 -28 225 18
80 33 172 34 206 0 34 3 89 7 123 7 68 22 86 86 101 42 10 202 3 247 -10z
m471 4 c17 -8 29 -18 26 -20 -6 -6 -67 23 -67 31 0 8 10 6 41 -11z m-853 -11
c-2 -5 -14 -29 -28 -55 -26 -51 -46 -66 -29 -21 15 39 42 83 52 83 5 0 7 -3 5
-7z m838 -29 c18 -14 18 -15 -6 -8 -31 8 -50 24 -29 24 8 0 24 -7 35 -16z
m-846 -43 c0 -5 -7 -14 -15 -21 -16 -14 -18 -10 -9 14 6 17 24 22 24 7z m905
-9 c-3 -3 -11 0 -18 7 -9 10 -8 11 6 5 10 -3 15 -9 12 -12z m-870 -12 c-3 -5
-11 -10 -16 -10 -6 0 -7 5 -4 10 3 6 11 10 16 10 6 0 7 -4 4 -10z m1128 -81
c3 -10 3 -19 -1 -19 -14 0 -42 35 -42 53 0 19 1 19 19 3 10 -10 21 -26 24 -37z
m-1173 -19 c-26 -37 -51 -53 -29 -20 8 14 19 31 23 38 4 6 12 12 17 12 6 0 1
-13 -11 -30z m1019 -59 l-1 -46 -13 50 c-7 28 -16 59 -20 70 -6 17 -4 17 14
-4 15 -17 21 -36 20 -70z m35 49 c7 -24 6 -24 -8 -6 -9 11 -16 27 -16 35 0 21
16 2 24 -29z m162 -9 c-3 -4 -10 -21 -16 -36 -6 -15 -13 -25 -16 -22 -6 6 23
67 32 67 3 0 3 -4 0 -9z m-1200 -26 c-11 -29 -77 -127 -82 -122 -5 5 26 73 54
115 16 25 37 30 28 7z m1140 -123 c-12 -43 -34 -100 -48 -127 -14 -28 -33 -69
-43 -92 -10 -23 -42 -70 -72 -105 -35 -42 -76 -109 -119 -198 -82 -168 -97
-190 -132 -190 -15 0 -34 5 -42 11 -12 8 -9 9 12 5 14 -3 33 -3 41 0 17 6 59
109 106 258 31 99 51 133 157 261 37 45 114 168 114 182 0 12 33 73 40 73 4 0
-2 -35 -14 -78z m-1136 50 c0 -20 -79 -137 -95 -140 -14 -3 -15 -1 -4 20 46
88 99 152 99 120z m-34 -140 c-14 -14 -16 -14 -16 -1 0 20 23 44 29 28 2 -6
-4 -18 -13 -27z m-70 -89 l-25 -48 0 40 c-1 44 6 59 29 67 24 8 23 -7 -4 -59z
m54 26 c-7 -11 -14 -18 -17 -15 -3 3 0 12 7 21 18 21 23 19 10 -6z m-40 -119
c0 -22 -4 -40 -10 -40 -11 0 -13 39 -4 64 10 26 14 19 14 -24z m-40 15 c0 -8
-4 -15 -10 -15 -5 0 -7 7 -4 15 4 8 8 15 10 15 2 0 4 -7 4 -15z m970 6 c0 -5
-12 -23 -26 -40 -14 -17 -49 -72 -79 -123 -60 -105 -104 -147 -166 -158 -42
-8 -89 4 -89 22 0 10 11 10 29 -1 17 -11 81 6 101 28 9 9 31 43 50 75 18 32
62 92 97 133 60 68 83 86 83 64z m-890 -8 c0 -5 -5 -15 -10 -23 -8 -12 -10
-11 -10 8 0 12 5 22 10 22 6 0 10 -3 10 -7z m30 -63 c12 -8 11 -10 -7 -10 -13
0 -23 5 -23 10 0 13 11 13 30 0z m775 -110 c-14 -29 -28 -50 -31 -47 -2 2 8
27 23 55 15 28 29 50 31 48 2 -2 -9 -27 -23 -56z m-594 32 c-7 -2 -18 1 -23 6
-8 8 -4 9 13 5 13 -4 18 -8 10 -11z m-349 -12 c35 -7 89 -9 121 -5 77 8 192
-32 209 -74 12 -30 -5 -275 -22 -326 -8 -23 -9 -14 -4 43 3 39 3 72 1 72 -5 0
-34 -199 -42 -289 -3 -35 -10 -70 -15 -76 -7 -8 -47 -14 -108 -17 -94 -4 -100
-6 -193 -55 -52 -29 -124 -61 -159 -73 l-64 -21 -17 23 c-20 25 -42 84 -88
230 -25 79 -30 113 -29 185 1 72 -3 99 -24 153 -48 122 -59 165 -49 192 14 37
32 42 171 48 153 7 231 4 312 -10z m428 -5 c7 -8 8 -15 2 -15 -5 0 -15 7 -22
15 -7 8 -8 15 -2 15 5 0 15 -7 22 -15z m-33 -11 c-3 -3 -12 -4 -19 -1 -8 3 -5
6 6 6 11 1 17 -2 13 -5z m91 -54 c26 -16 43 -30 39 -30 -10 0 -97 50 -97 56 0
8 11 3 58 -26z m462 -19 c-5 -11 -15 -23 -21 -27 -6 -3 -3 5 6 20 20 30 30 35
15 7z m-361 -35 c9 -7 35 -24 59 -38 37 -22 49 -24 94 -17 28 5 68 20 89 34
22 14 39 20 39 15 0 -6 5 -8 10 -5 20 13 9 -17 -16 -42 -23 -23 -31 -25 -80
-20 -30 3 -54 4 -54 1 0 -2 17 -11 38 -19 34 -15 40 -15 70 -1 18 9 38 16 44
16 7 0 23 12 36 28 l23 27 -7 -25 c-21 -76 -14 -72 -125 -68 -73 3 -104 8
-113 18 -6 8 -37 33 -69 54 -56 38 -76 56 -61 56 4 0 15 -6 23 -14z m-144 -46
c-3 -5 -10 -10 -16 -10 -5 0 -9 5 -9 10 0 6 7 10 16 10 8 0 12 -4 9 -10z m40
-20 c4 -6 -5 -10 -20 -10 -15 0 -24 4 -20 10 3 6 12 10 20 10 8 0 17 -4 20
-10z m155 -20 c0 -5 -2 -10 -4 -10 -3 0 -8 5 -11 10 -3 6 -1 10 4 10 6 0 11
-4 11 -10z m-102 -102 c-24 -30 -40 -37 -46 -19 -2 5 9 17 25 25 15 8 24 15
20 16 -5 0 -5 5 -2 10 4 6 11 8 16 4 6 -3 0 -18 -13 -36z m-964 10 c3 -13 6
-39 6 -58 -1 -45 -15 -22 -24 38 -6 44 7 59 18 20z m51 -365 c3 -16 20 -58 37
-96 23 -49 38 -69 55 -73 33 -9 111 19 233 82 57 30 113 54 124 54 10 0 -12
-16 -50 -36 -37 -19 -85 -51 -105 -69 -70 -63 -166 -95 -217 -72 -28 13 -77
113 -90 185 -10 53 1 74 13 25z m1377 -120 c1 -36 -19 -60 -36 -43 -10 10 -10
91 1 125 5 17 8 16 20 -13 7 -19 14 -49 15 -69z m-55 65 c-3 -8 -6 -5 -6 6 -1
11 2 17 5 13 3 -3 4 -12 1 -19z m-18 -90 c0 -64 -28 -142 -52 -146 -11 -2 -17
3 -17 13 0 30 51 185 61 185 5 0 9 -24 8 -52z m-104 -8 c-10 -22 -24 -40 -32
-40 -19 0 -16 10 13 53 32 48 43 40 19 -13z m-686 -15 c-8 -7 -25 -16 -39 -20
-23 -6 -22 -3 10 24 33 28 59 24 29 -4z m728 -17 c-3 -8 -6 -5 -6 6 -1 11 2
17 5 13 3 -3 4 -12 1 -19z m-797 -4 c0 -2 -9 -4 -20 -4 -11 0 -20 4 -20 9 0 5
9 7 20 4 11 -3 20 -7 20 -9z m159 -803 c7 -33 5 -43 -11 -60 -22 -24 -35 -27
-35 -7 0 8 5 12 11 10 14 -5 19 53 6 61 -6 4 -10 27 -9 53 l1 47 14 -32 c7
-18 18 -50 23 -72z m-116 -8 c-13 -2 -33 -2 -45 0 -13 2 -3 4 22 4 25 0 35 -2
23 -4z m-43 -33 c-41 -22 -80 -26 -80 -7 0 22 11 27 64 27 l51 -1 -35 -19z"/>
<path d="M4986 4453 c-6 -14 -5 -15 5 -6 7 7 10 15 7 18 -3 3 -9 -2 -12 -12z"/>
<path d="M4268 4123 c6 -2 18 -2 25 0 6 3 1 5 -13 5 -14 0 -19 -2 -12 -5z"/>
<path d="M4301 4084 c-12 -15 -21 -34 -20 -43 0 -13 1 -14 6 -1 3 8 15 27 25
43 25 35 16 35 -11 1z"/>
<path d="M4230 2943 c-123 -18 -201 -37 -216 -54 -16 -18 -16 -31 -5 -167 7
-81 24 -210 37 -287 36 -200 37 -201 241 -123 83 31 128 42 193 47 81 6 85 7
106 38 20 30 23 51 29 220 9 208 1 260 -41 303 -24 24 -29 25 -172 26 -81 1
-158 -1 -172 -3z m296 -29 c64 -9 69 -25 72 -232 2 -103 1 -206 -3 -229 -9
-64 -24 -73 -116 -73 -73 0 -88 -4 -179 -45 -54 -25 -122 -49 -149 -52 -50 -6
-51 -5 -65 28 -8 19 -24 115 -35 214 -12 99 -26 215 -33 257 -9 58 -9 80 0 91
10 12 141 36 267 50 35 4 195 -2 241 -9z"/>
<path d="M3750 5490 c8 -5 20 -10 25 -10 6 0 3 5 -5 10 -8 5 -19 10 -25 10 -5
0 -3 -5 5 -10z"/>
<path d="M3800 5470 c8 -5 20 -10 25 -10 6 0 3 5 -5 10 -8 5 -19 10 -25 10 -5
0 -3 -5 5 -10z"/>
<path d="M3879 5439 c24 -11 46 -18 48 -15 4 4 -73 36 -85 35 -4 0 13 -9 37
-20z"/>
<path d="M3941 5416 c2 -2 15 -9 29 -15 24 -11 24 -11 6 3 -16 13 -49 24 -35
12z"/>
<path d="M4007 5379 c7 -7 15 -10 18 -7 3 3 -2 9 -12 12 -14 6 -15 5 -6 -5z"/>
<path d="M5220 4948 c0 -14 -3 -34 -7 -44 -5 -12 -3 -15 6 -9 10 5 11 2 7 -12
-10 -30 11 -119 44 -188 16 -34 31 -73 31 -86 1 -17 3 -19 6 -7 2 9 -12 64
-31 120 -26 73 -36 121 -36 163 0 33 -5 67 -10 75 -8 12 -10 9 -10 -12z"/>
<path d="M5312 4510 c0 -14 2 -19 5 -12 2 6 2 18 0 25 -3 6 -5 1 -5 -13z"/>
<path d="M4106 3653 c-8 -54 -6 -274 4 -298 4 -11 7 57 7 158 -1 97 -2 177 -3
177 -1 0 -4 -17 -8 -37z"/>
<path d="M4243 3585 c0 -27 2 -38 4 -22 2 15 2 37 0 50 -2 12 -4 0 -4 -28z"/>
<path d="M4242 3455 c0 -16 2 -22 5 -12 2 9 2 23 0 30 -3 6 -5 -1 -5 -18z"/>
<path d="M4312 3405 c0 -16 2 -22 5 -12 2 9 2 23 0 30 -3 6 -5 -1 -5 -18z"/>
<path d="M4232 3400 c0 -14 2 -19 5 -12 2 6 2 18 0 25 -3 6 -5 1 -5 -13z"/>
<path d="M4112 3300 c0 -19 2 -27 5 -17 2 9 2 25 0 35 -3 9 -5 1 -5 -18z"/>
<path d="M4091 3232 c-26 -62 -79 -97 -211 -142 -180 -61 -204 -74 -239 -128
-35 -56 -61 -140 -61 -196 0 -23 7 -74 16 -115 9 -47 13 -94 9 -126 -5 -36 -2
-68 10 -106 9 -30 19 -83 22 -119 3 -36 7 -67 9 -69 11 -12 2 112 -12 155 -15
48 -28 216 -26 359 1 96 25 148 103 216 34 30 71 59 83 66 11 7 17 12 11 13
-34 1 -161 -119 -182 -171 -8 -22 -18 -38 -20 -35 -10 10 29 105 55 132 35 38
128 87 152 81 11 -3 29 4 41 14 12 10 31 19 43 19 35 1 109 39 149 78 38 36
73 90 64 98 -2 3 -10 -8 -16 -24z m-494 -444 c-3 -7 -5 -2 -5 12 0 14 2 19 5
13 2 -7 2 -19 0 -25z"/>
<path d="M3525 2863 c-21 -51 -40 -175 -38 -248 1 -33 10 -107 19 -164 11 -74
14 -130 9 -192 -5 -59 -1 -146 10 -263 l18 -174 -40 -70 c-22 -38 -50 -99 -62
-134 -26 -77 -91 -151 -143 -163 -18 -4 -132 -9 -253 -11 -226 -3 -305 -9
-305 -24 0 -4 19 -3 43 2 23 6 93 8 155 5 62 -3 172 -1 245 4 107 8 137 13
162 31 39 26 105 114 105 139 0 10 23 63 51 116 59 112 59 111 35 334 -12 106
-13 150 -5 198 9 51 8 88 -11 218 -22 159 -22 221 2 328 6 28 17 62 25 78 8
16 9 27 3 27 -5 0 -17 -17 -25 -37z"/>
<path d="M2203 2428 c3 -13 24 -84 46 -158 34 -118 82 -284 99 -345 3 -11 1
-17 -3 -12 -8 6 -62 146 -116 300 -32 88 -50 78 -94 -56 -32 -96 -39 -155 -26
-205 13 -47 42 -72 83 -72 42 0 33 -15 -19 -34 -114 -40 -205 -106 -145 -106
27 0 139 -84 147 -111 8 -24 -7 -38 -40 -39 -11 0 -51 -12 -90 -25 -38 -14
-82 -25 -97 -25 -15 0 -29 -4 -33 -9 -6 -11 -13 -12 -120 -11 -44 1 -81 5 -83
10 -2 6 -12 5 -24 -1 -22 -12 -51 -10 -217 14 -70 10 -97 18 -107 32 -17 23
-18 65 -2 65 6 0 3 6 -7 14 -18 13 -18 13 1 24 10 6 15 11 9 12 -29 0 -35 -16
-25 -70 6 -30 14 -58 18 -62 4 -4 40 -14 81 -22 40 -9 89 -25 109 -36 75 -45
204 -74 314 -72 43 0 175 48 164 59 -2 3 -18 -3 -35 -12 -17 -8 -31 -12 -31
-8 0 5 35 22 78 38 46 19 77 37 77 45 0 9 14 17 35 22 68 13 122 29 150 43 31
16 196 29 204 16 3 -5 33 -11 66 -15 56 -7 99 -19 210 -61 33 -13 79 -18 175
-19 118 -1 134 1 170 22 83 46 141 95 167 140 53 92 52 88 54 297 2 213 6 271
24 360 11 51 9 77 -5 63 -3 -3 -10 -43 -16 -89 -5 -46 -15 -112 -21 -147 -6
-38 -8 -117 -4 -202 8 -162 -1 -209 -47 -255 -38 -38 -132 -75 -207 -82 -31
-3 -92 2 -141 11 -47 9 -110 16 -140 16 -72 0 -85 9 -71 49 6 18 29 57 51 89
22 31 47 73 55 94 14 34 14 38 -4 61 -34 43 -99 41 -272 -7 -82 -23 -148 -35
-148 -26 0 4 21 22 48 38 110 71 145 135 113 208 -25 55 -124 153 -209 207
-113 72 -159 85 -149 45z m67 -13 c14 -16 10 -18 -14 -9 -9 3 -16 10 -16 15 0
14 16 11 30 -6z m29 -138 c36 -152 20 -161 -18 -10 -23 89 -27 123 -12 108 5
-6 19 -50 30 -98z m11 87 c0 -8 -4 -12 -10 -9 -5 3 -10 10 -10 16 0 5 5 9 10
9 6 0 10 -7 10 -16z m50 -15 c0 -5 6 -9 14 -9 7 0 20 -7 27 -17 13 -15 12 -15
-11 -3 -14 7 -31 16 -39 20 -21 9 -27 32 -7 24 9 -3 16 -10 16 -15z m-30 -19
c0 -5 -2 -10 -4 -10 -3 0 -8 5 -11 10 -3 6 -1 10 4 10 6 0 11 -4 11 -10z m55
-20 c3 -5 1 -10 -4 -10 -6 0 -11 5 -11 10 0 6 2 10 4 10 3 0 8 -4 11 -10z m25
-60 c-1 -12 -4 -11 -15 4 -8 10 -12 23 -8 29 7 11 23 -12 23 -33z m30 10 c0
-5 -4 -10 -10 -10 -5 0 -10 5 -10 10 0 6 5 10 10 10 6 0 10 -4 10 -10z m-90
-65 c0 -5 -5 -3 -10 5 -5 8 -10 20 -10 25 0 6 5 3 10 -5 5 -8 10 -19 10 -25z
m196 -16 c18 -36 18 -70 -1 -95 -15 -18 -15 -18 -10 7 6 22 -3 58 -31 124 -7
18 -6 19 10 6 9 -8 24 -27 32 -42z m-379 19 c-3 -8 -6 -5 -6 6 -1 11 2 17 5
13 3 -3 4 -12 1 -19z m333 -33 c0 -7 3 -20 6 -29 3 -9 2 -16 -3 -16 -6 0 -15
17 -22 38 -7 20 -15 44 -17 52 -3 8 4 4 15 -9 12 -13 21 -29 21 -36z m-234
-133 c-8 -7 -55 105 -61 146 -4 24 6 6 30 -52 19 -49 33 -91 31 -94z m-70 53
c9 -40 -4 -27 -16 15 -6 20 -6 30 -1 24 5 -5 13 -22 17 -39z m270 33 c12 -18
15 -78 5 -78 -15 0 -24 19 -27 56 -2 34 8 45 22 22z m-86 -36 c0 -7 -4 -10
-10 -7 -5 3 -10 16 -10 28 0 18 2 19 10 7 5 -8 10 -21 10 -28z m-240 14 c0 -3
-4 -8 -10 -11 -5 -3 -10 -1 -10 4 0 6 5 11 10 11 6 0 10 -2 10 -4z m300 -35
c0 -6 -4 -13 -10 -16 -5 -3 -10 1 -10 9 0 9 5 16 10 16 6 0 10 -4 10 -9z m-41
-53 c7 11 12 12 29 1 20 -13 20 -13 -4 -32 -14 -11 -28 -17 -31 -13 -4 3 0 6
7 6 10 0 11 3 3 11 -15 15 -34 3 -26 -16 3 -8 0 -15 -6 -15 -6 0 -10 10 -10
23 0 12 -2 33 -6 47 l-7 25 21 -25 c16 -20 23 -22 30 -12z m-129 -74 c0 -8 -4
-12 -10 -9 -5 3 -10 13 -10 21 0 8 5 12 10 9 6 -3 10 -13 10 -21z m300 -41
c-19 -8 -66 -23 -105 -34 -38 -10 -81 -21 -95 -25 -18 -5 -22 -4 -15 4 10 11
208 70 235 70 8 0 -1 -6 -20 -15z m220 -11 c0 -5 -20 -38 -45 -75 -25 -37 -45
-74 -45 -81 0 -27 -26 -37 -81 -30 -30 3 -74 1 -99 -6 -25 -6 -70 -16 -100
-21 -30 -6 -91 -20 -134 -31 l-80 -22 -15 25 c-9 13 -28 35 -43 49 l-28 24
208 53 c114 29 247 62 295 73 48 11 102 27 120 34 38 17 47 19 47 8z m-494
-57 c-19 -14 -66 -21 -66 -10 0 8 42 24 65 24 20 0 20 0 1 -14z m-1 -40 c-47
-16 -93 -19 -79 -6 12 12 42 19 84 19 l35 0 -40 -13z m-155 -15 c0 -5 -12 -10
-27 -9 -25 0 -26 1 -8 9 27 12 35 12 35 0z m508 -126 c12 -4 22 -10 22 -15 0
-10 -45 -2 -70 12 -12 7 -11 8 5 9 11 0 30 -3 43 -6z m287 -14 c3 -6 -5 -10
-19 -10 -14 0 -28 5 -31 10 -3 6 5 10 19 10 14 0 28 -4 31 -10z m185 -20 c0
-5 -9 -10 -20 -10 -11 0 -23 -7 -26 -15 -7 -17 -64 -21 -64 -5 0 6 -7 10 -17
10 -37 0 3 15 55 21 31 3 60 7 65 8 4 0 7 -3 7 -9z m-220 -42 c0 -6 -7 -7 -16
-4 -9 3 -18 6 -20 6 -3 0 -3 4 1 10 7 11 35 2 35 -12z m-843 -39 c-27 -16
-128 -49 -149 -49 -26 0 -23 19 5 25 12 2 47 11 77 18 70 18 91 20 67 6z
m-192 -59 c-11 -5 -33 -8 -50 -8 -29 1 -29 1 5 8 49 10 69 10 45 0z"/>
<path d="M2528 1753 c7 -3 16 -2 19 1 4 3 -2 6 -13 5 -11 0 -14 -3 -6 -6z"/>
<path d="M2365 1730 c-8 -13 5 -13 25 0 13 8 13 10 -2 10 -9 0 -20 -4 -23 -10z"/>
<path d="M2328 1713 c7 -3 16 -2 19 1 4 3 -2 6 -13 5 -11 0 -14 -3 -6 -6z"/>
<path d="M2270 1700 c-13 -9 -13 -10 0 -10 8 0 22 5 30 10 13 9 13 10 0 10 -8
0 -22 -5 -30 -10z"/>
<path d="M1533 2005 c-3 -9 -3 -19 1 -22 3 -4 6 1 6 10 0 24 6 22 68 -29 l57
-47 -55 51 c-60 56 -68 60 -77 37z"/>
<path d="M1544 1840 c0 -69 1 -97 3 -62 2 34 2 90 0 125 -2 34 -3 6 -3 -63z"/>
<path d="M3416 1855 c-3 -9 -6 -22 -5 -28 0 -7 5 -1 10 12 5 13 8 26 5 28 -2
2 -6 -3 -10 -12z"/>
<path d="M3402 1780 c0 -19 2 -27 5 -17 2 9 2 25 0 35 -3 9 -5 1 -5 -18z"/>
<path d="M3392 1715 c0 -16 2 -22 5 -12 2 9 2 23 0 30 -3 6 -5 -1 -5 -18z"/>
<path d="M1515 1699 c-24 -5 -25 -7 -7 -8 14 -1 22 -7 22 -18 1 -17 1 -17 11
0 6 9 15 15 20 11 6 -4 6 -11 -2 -20 -8 -10 -8 -14 0 -14 6 0 11 4 11 9 0 5
12 14 28 19 l27 10 -30 1 c-17 1 -35 5 -40 9 -6 5 -23 5 -40 1z"/>
<path d="M1458 1693 c7 -3 16 -2 19 1 4 3 -2 6 -13 5 -11 0 -14 -3 -6 -6z"/>
<path d="M1635 1670 c3 -5 26 -10 49 -10 27 0 48 -6 57 -16 11 -14 13 -14 22
1 5 9 7 18 5 19 -1 2 -34 6 -71 10 -46 5 -67 3 -62 -4z"/>
<path d="M3335 1606 c-22 -22 -31 -34 -20 -29 22 12 71 62 64 65 -2 2 -22 -15
-44 -36z"/>
<path d="M1408 1633 c7 -3 16 -2 19 1 4 3 -2 6 -13 5 -11 0 -14 -3 -6 -6z"/>
<path d="M1478 1623 c12 -2 30 -2 40 0 9 3 -1 5 -23 4 -22 0 -30 -2 -17 -4z"/>
<path d="M1736 1611 c-11 -17 -27 -66 -19 -56 12 13 34 65 28 65 -2 0 -6 -4
-9 -9z"/>
<path d="M3258 1563 c6 -2 18 -2 25 0 6 3 1 5 -13 5 -14 0 -19 -2 -12 -5z"/>
<path d="M3140 1530 c-8 -5 -10 -10 -5 -10 6 0 17 5 25 10 8 5 11 10 5 10 -5
0 -17 -5 -25 -10z"/>
<path d="M2568 1523 c7 -3 16 -2 19 1 4 3 -2 6 -13 5 -11 0 -14 -3 -6 -6z"/>
<path d="M2678 1523 c7 -3 16 -2 19 1 4 3 -2 6 -13 5 -11 0 -14 -3 -6 -6z"/>
<path d="M2738 1513 c7 -3 16 -2 19 1 4 3 -2 6 -13 5 -11 0 -14 -3 -6 -6z"/>
<path d="M3098 1513 c7 -3 16 -2 19 1 4 3 -2 6 -13 5 -11 0 -14 -3 -6 -6z"/>
<path d="M3058 1503 c7 -3 16 -2 19 1 4 3 -2 6 -13 5 -11 0 -14 -3 -6 -6z"/>
<path d="M2938 1493 c6 -2 18 -2 25 0 6 3 1 5 -13 5 -14 0 -19 -2 -12 -5z"/>
<path d="M3003 1493 c9 -2 23 -2 30 0 6 3 -1 5 -18 5 -16 0 -22 -2 -12 -5z"/>
</g>
</svg>
