<?xml version="1.0" standalone="no"?>
<!DOCTYPE svg PUBLIC "-//W3C//DTD SVG 20010904//EN"
 "http://www.w3.org/TR/2001/REC-SVG-20010904/DTD/svg10.dtd">
<svg version="1.0" xmlns="http://www.w3.org/2000/svg"
 width="686.000000pt" height="666.000000pt" viewBox="0 0 686.000000 666.000000"
 preserveAspectRatio="xMidYMid meet">

<g transform="translate(0.000000,666.000000) scale(0.100000,-0.100000)"
fill="#000000" stroke="none">
<path d="M1612 5642 c-64 -23 -114 -62 -164 -128 -40 -52 -83 -152 -93 -219
-11 -67 -15 -73 -50 -85 -52 -17 -131 -110 -152 -178 -39 -125 -12 -304 58
-394 l29 -37 -29 -46 c-39 -62 -55 -133 -48 -214 6 -70 33 -147 61 -170 20
-17 20 -17 -4 47 -27 72 -27 192 0 266 28 73 41 83 77 58 61 -42 113 -34 113
17 0 20 -10 37 -31 55 -33 28 -59 32 -92 15 -47 -26 -107 95 -107 215 0 112
46 220 116 275 39 30 51 26 57 -19 14 -105 112 -148 153 -68 30 59 -8 150 -75
178 -25 10 -31 18 -31 44 0 121 148 304 267 330 76 17 156 -37 181 -122 34
-114 42 -381 17 -577 -24 -190 -20 -278 15 -386 45 -139 110 -235 193 -283 47
-27 167 -47 167 -27 0 6 -12 11 -26 11 -67 0 -172 82 -232 182 -63 105 -74
233 -47 543 37 429 -4 642 -136 710 -47 25 -128 28 -187 7z m-170 -537 c12
-26 4 -46 -11 -29 -5 5 -12 19 -16 32 -9 31 12 29 27 -3z m-73 -531 c13 -11
12 -14 -2 -20 -20 -7 -70 23 -61 37 7 12 43 2 63 -17z"/>
<path d="M4880 5371 c-19 -10 -59 -31 -88 -46 -57 -29 -82 -64 -82 -115 0 -28
-8 -36 -90 -88 -159 -100 -457 -309 -583 -409 -148 -118 -340 -303 -374 -360
-14 -24 -26 -43 -28 -43 -1 0 -23 9 -48 20 -43 19 -45 22 -52 73 -14 112 -73
319 -109 382 l-17 30 7 -34 c9 -50 -17 -36 -36 20 -8 24 -27 69 -42 99 -14 30
-29 66 -32 80 -3 14 -15 40 -26 59 -23 36 -24 36 -115 12 -42 -11 -105 0 -136
22 -52 39 -64 137 -23 186 14 17 30 31 35 31 17 0 9 -35 -11 -48 -46 -28 -12
-139 49 -160 35 -12 39 -7 14 20 -21 23 -10 36 13 14 9 -10 24 -14 35 -11 22
7 25 -5 7 -24 -11 -12 -9 -13 7 -6 58 23 96 29 113 19 16 -10 17 -5 17 57 0
58 -4 71 -24 93 -30 32 -120 76 -156 76 -72 0 -151 -82 -161 -168 -10 -74 53
-144 141 -158 40 -5 61 -2 117 21 12 5 26 -8 56 -52 67 -99 142 -249 178 -356
30 -85 74 -237 74 -250 0 -3 -23 -7 -52 -10 -86 -11 -192 -73 -226 -132 -9
-17 -14 -18 -29 -7 -42 29 -59 28 -47 -2 6 -15 127 -110 190 -149 48 -29 129
-90 168 -127 53 -49 142 -108 206 -137 137 -61 355 -123 433 -123 16 0 27 -4
25 -8 -1 -5 -106 -107 -231 -227 -125 -120 -235 -231 -244 -248 -8 -17 -35
-51 -58 -76 -28 -30 -67 -95 -109 -181 -36 -74 -66 -139 -66 -144 0 -9 -31
-81 -51 -118 -5 -10 -9 -26 -9 -37 0 -10 -13 -33 -29 -50 -28 -29 -31 -30 -97
-27 -60 3 -86 12 -199 67 -150 72 -143 68 -127 78 29 18 -30 42 -213 86 -82
20 -166 40 -185 45 -30 8 -106 20 -348 57 -19 3 -49 20 -69 39 -35 33 -36 35
-29 89 5 49 12 61 50 98 57 55 74 108 58 180 -20 83 -20 82 15 85 41 4 87 55
80 89 -3 18 2 27 24 39 32 16 34 21 18 61 l-11 28 -13 -32 c-26 -60 -84 -67
-156 -17 -46 31 -72 23 -123 -39 -20 -24 -54 -52 -76 -62 -37 -17 -42 -17 -57
-3 -12 12 -13 23 -6 45 11 33 29 32 26 -3 -1 -13 1 -24 3 -24 17 0 56 30 101
78 41 43 50 59 41 69 -8 10 -8 20 0 36 15 31 22 130 11 150 -14 25 -49 22 -49
-4 0 -28 -24 -19 -28 11 -7 45 54 55 95 14 22 -23 25 -32 21 -80 l-5 -54 36
-5 c20 -4 45 -11 56 -17 11 -6 35 -15 53 -19 29 -6 34 -4 47 21 8 16 15 39 15
50 0 40 121 265 224 418 31 45 56 86 56 89 0 4 16 34 36 66 20 32 33 61 29 65
-8 8 -101 -91 -190 -205 -62 -77 -198 -298 -254 -411 -20 -41 -30 -52 -46 -50
-15 2 -21 13 -26 49 -8 57 -21 81 -55 108 -34 26 -54 26 -88 0 -34 -27 -35
-79 -1 -134 14 -22 25 -45 25 -51 0 -7 -24 -24 -52 -39 -80 -41 -118 -81 -118
-125 0 -48 25 -70 79 -70 36 0 49 6 91 46 40 38 51 43 56 30 10 -25 -5 -84
-34 -137 -26 -46 -29 -48 -82 -55 -97 -12 -283 -63 -347 -94 -47 -23 -64 -37
-72 -62 -17 -47 -13 -108 9 -174 27 -77 23 -93 -25 -118 -52 -27 -68 -60 -54
-110 22 -81 78 -104 170 -70 24 8 63 16 87 16 23 1 42 5 42 9 0 5 19 17 43 28
l42 21 -45 -4 c-44 -4 -232 -50 -251 -61 -41 -26 -100 86 -70 133 4 7 34 21
67 31 67 20 65 15 39 126 -8 33 -14 84 -14 113 1 43 5 52 18 50 11 -3 15 -13
14 -38 -1 -19 7 -78 18 -132 10 -53 16 -103 13 -112 -3 -9 -22 -20 -42 -26
-20 -5 -47 -22 -60 -37 -22 -26 -23 -26 -19 -5 3 12 1 22 -4 22 -16 0 -9 -54
10 -79 15 -19 21 -21 38 -13 11 6 53 19 94 28 41 9 91 25 111 35 21 11 44 19
53 19 8 0 24 14 34 31 16 26 19 28 25 12 5 -12 -1 -25 -19 -40 l-26 -23 23 0
c49 0 64 55 31 111 -22 37 -53 45 -105 30 -34 -11 -43 -10 -58 4 -26 24 -45
99 -34 137 8 28 15 33 63 44 29 6 56 16 60 22 3 5 25 13 48 17 41 6 61 20 49
32 -3 3 -38 1 -78 -5 -40 -6 -74 -9 -77 -6 -13 12 25 29 72 31 29 1 65 7 81
12 35 14 76 14 76 1 0 -6 -7 -13 -15 -16 -11 -5 -12 -10 -6 -18 7 -8 7 -35 1
-77 -4 -35 -14 -121 -20 -190 -11 -115 -11 -129 5 -163 29 -60 53 -70 194 -78
373 -22 455 -34 766 -111 95 -23 296 -97 377 -138 71 -36 259 -18 326 31 15
11 68 28 118 39 102 21 137 37 176 78 35 36 104 169 129 247 32 101 44 316 18
316 -5 0 -9 -19 -9 -43 0 -68 -19 -205 -36 -255 -21 -62 -71 -168 -102 -215
-30 -46 -66 -66 -147 -83 -96 -21 -95 -21 -95 37 0 68 44 284 70 345 43 98
128 210 233 306 212 193 257 251 257 330 l-1 43 -24 -39 c-13 -22 -43 -52 -67
-68 -24 -15 -88 -61 -143 -101 -55 -41 -106 -77 -112 -81 -60 -35 104 142 237
254 97 83 99 86 93 110 -8 32 -35 45 -138 69 -55 13 -131 32 -170 43 -73 21
-225 77 -225 83 0 2 9 19 19 37 21 37 36 121 32 186 -2 51 -63 177 -92 192
-10 6 -19 15 -19 20 0 5 54 59 121 120 103 94 267 223 490 384 30 21 154 87
277 148 l222 109 26 -20 c14 -11 50 -25 79 -32 47 -10 60 -10 99 5 95 36 157
146 136 241 -24 105 -135 164 -220 116z m98 -13 c-3 -7 -21 -14 -41 -16 -27
-2 -49 -15 -86 -51 -44 -40 -51 -52 -51 -85 0 -44 -31 -93 -67 -107 -13 -5
-55 -29 -94 -55 -39 -25 -105 -64 -147 -86 -43 -22 -88 -48 -102 -58 -41 -28
-152 -82 -157 -76 -10 10 15 32 64 56 26 13 62 33 78 44 45 31 66 43 112 65
23 11 74 40 112 65 39 25 84 52 101 61 51 26 70 51 70 93 0 50 30 96 87 132
49 32 129 43 121 18z m62 -168 c0 -19 -27 -64 -52 -87 -34 -31 -102 -49 -133
-35 -14 6 -25 15 -25 20 0 14 48 32 87 32 37 0 73 23 73 46 0 7 8 18 18 23 22
13 32 14 32 1z m-1501 -921 c20 -7 31 -18 31 -30 0 -21 -11 -24 -27 -8 -6 6
-35 19 -65 29 l-53 19 41 0 c23 1 55 -4 73 -10z m-100 -124 c28 -19 55 -35 61
-35 5 0 10 -4 10 -10 0 -5 9 -10 20 -10 18 0 19 3 10 20 -14 27 1 25 28 -2 23
-26 42 -69 42 -99 0 -16 -8 -12 -52 23 -29 24 -86 60 -125 81 -70 37 -81 46
-66 60 11 11 19 8 72 -28z m254 -84 c3 -39 1 -86 -4 -105 -10 -35 -31 -47 -44
-26 -3 6 -1 10 6 10 8 0 10 13 6 40 -3 23 -1 40 5 40 6 0 7 21 3 55 -6 45 -5
55 7 55 11 0 17 -18 21 -69z m-69 -136 c7 -19 -5 -19 -30 0 -19 14 -19 14 2
15 12 0 24 -7 28 -15z m-1754 -1056 c0 -17 -4 -28 -10 -24 -5 3 -34 -6 -63
-20 -65 -30 -64 -30 -62 -6 2 28 24 51 49 51 11 1 32 7 46 15 36 20 40 19 40
-16z m1780 -234 c15 -120 9 -135 -72 -173 -35 -16 -74 -33 -87 -37 -21 -6 -23
-5 -16 11 5 11 21 66 36 124 25 95 39 134 96 257 l17 38 7 -65 c4 -36 12 -106
19 -155z m-307 -102 c-7 -2 -21 -2 -30 0 -10 3 -4 5 12 5 17 0 24 -2 18 -5z"/>
<path d="M5501 4290 c-156 -56 -249 -160 -422 -470 -91 -163 -161 -273 -228
-361 -30 -39 -118 -95 -189 -118 -82 -28 -209 -29 -269 -1 -60 27 -53 9 10
-26 49 -27 59 -29 162 -29 105 0 113 2 177 34 156 78 247 186 397 469 120 228
182 306 305 390 143 96 269 77 292 -44 16 -85 -38 -294 -105 -405 -36 -60 -41
-64 -82 -69 -57 -8 -109 -33 -161 -79 -32 -29 -41 -44 -41 -69 0 -46 27 -72
77 -72 37 0 46 6 107 69 l67 69 25 -26 c37 -40 47 -66 47 -119 0 -54 -51 -156
-113 -229 -35 -40 -36 -40 -95 -36 -70 5 -114 -14 -137 -59 -43 -82 27 -92
138 -20 l39 25 19 -25 c37 -48 33 -122 -10 -188 -29 -45 -126 -107 -196 -126
-83 -23 -97 -40 -24 -30 98 13 159 43 220 105 47 47 59 67 69 111 13 60 2 126
-25 149 -8 7 -15 16 -15 21 0 4 25 32 56 61 79 75 110 124 133 212 20 76 20
76 0 123 -11 25 -35 61 -55 79 l-35 33 48 86 c78 139 90 166 108 243 60 253
-76 400 -294 322z m-30 -751 c-13 -10 -28 -19 -35 -19 -6 1 2 12 19 25 16 13
32 22 35 19 3 -3 -6 -14 -19 -25z m-6 -408 c6 -11 -102 -67 -112 -58 -12 12 8
38 39 52 39 17 65 19 73 6z"/>
<path d="M1310 4095 c0 -16 95 -56 150 -62 75 -7 77 11 3 22 -27 4 -70 16 -98
26 -55 21 -55 21 -55 14z"/>
<path d="M2808 4083 c-10 -2 -18 -9 -18 -14 0 -14 86 -53 195 -89 190 -63 399
-173 669 -352 135 -90 141 -103 69 -144 -166 -93 -187 -110 -361 -284 -97 -97
-193 -196 -213 -221 l-36 -44 -69 17 c-38 9 -94 20 -124 23 -30 3 -109 19
-175 34 -66 16 -167 39 -224 52 -57 12 -109 29 -117 37 -18 18 -18 31 7 153
17 89 73 256 190 574 57 154 48 154 -30 0 -109 -217 -193 -439 -229 -605 -21
-98 -16 -144 21 -176 29 -25 457 -181 615 -223 189 -52 211 -44 280 99 59 122
149 257 208 312 57 54 197 149 286 194 46 23 72 44 83 64 30 58 -1 98 -144
191 -58 38 -117 77 -131 87 -41 31 -238 146 -329 191 -109 55 -221 96 -315
115 -78 17 -79 17 -108 9z"/>
<path d="M2162 3625 c-10 -22 -8 -27 22 -50 60 -46 126 -43 126 6 0 12 -10 21
-27 25 -16 4 -45 15 -65 25 -46 23 -43 24 -56 -6z"/>
<path d="M2940 3635 c-7 -8 -10 -21 -7 -30 7 -18 -7 -63 -68 -220 -73 -187
-93 -248 -88 -262 16 -40 65 14 164 180 35 59 65 103 67 98 2 -5 -6 -42 -18
-81 -26 -88 -24 -115 10 -115 22 0 32 13 73 95 54 105 71 123 61 62 -8 -49 3
-56 95 -66 36 -3 80 -15 98 -26 52 -31 62 -23 21 15 -22 20 -51 36 -72 39
-117 19 -109 15 -102 44 4 15 9 53 13 85 5 53 4 57 -16 57 -28 0 -71 -61 -111
-158 -50 -120 -65 -126 -30 -12 49 159 5 188 -76 51 -90 -152 -116 -192 -119
-189 -3 2 25 82 61 178 63 170 88 270 67 270 -6 0 -16 -7 -23 -15z"/>
<path d="M2510 3517 c0 -6 166 -67 183 -67 26 0 -12 19 -83 41 -99 31 -100 31
-100 26z"/>
<path d="M4930 2791 c0 -16 26 -30 85 -46 65 -17 140 -20 115 -6 -8 5 -44 14
-80 21 -35 6 -77 18 -92 26 -15 8 -28 10 -28 5z"/>
<path d="M3089 2646 c13 -16 51 -28 51 -17 0 7 -44 31 -57 31 -3 0 0 -6 6 -14z"/>
<path d="M1686 2628 c-30 -42 -21 -86 28 -134 37 -37 49 -44 83 -44 50 0 87
31 103 87 10 34 10 46 -5 77 -19 40 -55 51 -55 17 0 -11 5 -23 10 -26 32 -20
-13 -105 -55 -105 -33 0 -65 44 -65 90 0 50 -22 69 -44 38z"/>
<path d="M3165 2610 c3 -5 8 -10 11 -10 2 0 4 5 4 10 0 6 -5 10 -11 10 -5 0
-7 -4 -4 -10z"/>
<path d="M1955 2296 c-47 -21 -71 -55 -95 -135 -16 -54 -19 -76 -10 -85 14
-14 32 11 25 34 -3 10 6 20 26 29 17 7 33 21 36 30 22 60 129 82 193 39 49
-34 64 -86 44 -149 -23 -70 -97 -117 -153 -98 -69 24 -124 -14 -64 -44 80 -40
177 -23 236 42 46 51 53 66 62 128 12 94 -42 172 -144 208 -53 18 -116 19
-156 1z"/>
<path d="M3030 2011 c-41 -7 -80 -31 -80 -48 0 -7 4 -13 9 -13 4 0 6 -12 4
-27 -5 -28 -4 -28 18 5 15 23 24 30 29 21 5 -7 19 -10 37 -6 41 8 84 -31 83
-76 0 -18 1 -39 2 -47 2 -22 -35 -76 -40 -60 -3 7 -26 34 -51 60 -129 131
-336 146 -466 36 -49 -41 -42 -55 14 -27 51 26 51 26 51 -5 0 -38 34 -80 70
-88 23 -4 45 1 81 19 44 23 49 29 49 58 0 18 -7 43 -16 55 -21 30 -15 35 32
26 28 -5 52 -20 84 -53 43 -43 100 -137 100 -162 0 -7 -12 -28 -27 -47 -23
-31 -28 -33 -38 -19 -10 14 -20 9 -76 -44 -58 -54 -161 -119 -190 -119 -7 0
-9 9 -6 22 4 15 -1 30 -16 46 -12 13 -21 25 -19 28 13 23 -32 47 -88 45 -23 0
-41 -8 -53 -23 -15 -18 -20 -19 -28 -7 -14 23 -10 127 7 160 8 17 13 36 11 42
-6 19 -65 -81 -72 -123 -8 -48 10 -144 36 -188 25 -43 24 -50 -5 -58 -34 -8
-64 11 -68 43 -2 20 -8 28 -20 27 -10 -1 -18 2 -18 6 0 19 -42 -5 -60 -35 -36
-58 -19 -168 32 -204 44 -32 102 -50 143 -45 78 10 178 35 215 54 21 11 68 24
106 30 84 14 184 60 219 102 46 55 87 148 93 212 4 45 14 74 38 111 52 83 86
176 44 122 -11 -14 -20 -28 -20 -32 0 -3 -11 -21 -25 -39 -14 -18 -25 -37 -25
-43 0 -19 -76 -111 -153 -183 -43 -41 -83 -85 -90 -98 -7 -13 -23 -30 -37 -37
-14 -7 -45 -23 -70 -35 -25 -13 -82 -42 -127 -65 -179 -92 -310 -75 -329 43
-5 34 -4 42 9 42 11 0 19 -14 24 -42 10 -50 36 -68 98 -68 73 0 134 21 271 94
99 53 295 235 355 330 21 34 42 66 47 71 4 6 23 36 41 68 33 57 45 68 54 45 3
-7 6 -1 6 14 2 45 -29 107 -60 123 -28 15 -75 17 -139 6z m2 -33 c-9 -9 -15
-9 -24 0 -9 9 -7 12 12 12 19 0 21 -3 12 -12z m96 -28 c3 -9 -1 -11 -13 -7 -9
4 -29 10 -43 14 -24 6 -24 7 -7 13 24 9 57 -2 63 -20z m19 -62 c-3 -8 -6 -5
-6 6 -1 11 2 17 5 13 3 -3 4 -12 1 -19z m-367 -8 c0 -11 7 -23 15 -26 19 -8
20 -24 1 -24 -8 0 -21 -6 -29 -14 -20 -21 -50 -10 -71 25 -17 28 -17 29 6 38
22 8 54 17 71 20 4 0 7 -8 7 -19z m-175 -362 c19 -9 25 -19 25 -43 0 -36 -21
-60 -45 -51 -8 3 -23 22 -32 42 -17 35 -17 36 2 50 23 17 18 17 50 2z m445 0
c-1 -24 -25 -56 -64 -87 -21 -17 -40 -31 -42 -31 -14 0 2 24 41 61 25 24 45
49 45 56 0 7 5 13 10 13 6 0 10 -6 10 -12z"/>
<path d="M4505 2010 c-79 -7 -139 -26 -202 -63 -55 -32 -37 -37 39 -11 102 34
115 33 129 -17 7 -23 19 -43 26 -46 13 -5 18 -59 7 -87 -3 -9 -17 -16 -30 -16
-12 0 -27 -7 -31 -15 -5 -8 -36 -22 -68 -30 -91 -24 -110 -35 -133 -79 -18
-35 -21 -57 -13 -98 2 -15 92 -46 120 -43 153 20 270 210 233 382 -6 26 -14
56 -17 66 -5 11 -2 17 8 17 20 0 61 -73 78 -138 12 -48 11 -58 -9 -119 -41
-123 -102 -201 -175 -226 -23 -8 -64 -22 -92 -32 -103 -37 -189 -35 -247 7
-36 25 -50 16 -36 -23 20 -58 100 -85 174 -59 22 8 40 7 71 -4 23 -8 44 -12
47 -9 3 3 11 1 18 -4 9 -7 33 -4 76 10 56 18 67 26 95 69 17 26 39 48 49 48
20 0 86 75 94 107 4 13 10 23 14 23 10 0 0 -49 -11 -56 -5 -3 -9 -15 -9 -27
-2 -58 -83 -153 -167 -193 -55 -26 -73 -29 -229 -38 -26 -1 -48 -10 -62 -24
-21 -21 -18 -25 14 -21 4 0 10 -5 15 -12 8 -14 144 -40 168 -32 9 4 23 11 31
18 8 6 35 17 60 24 25 7 69 26 98 43 44 25 53 27 58 14 5 -14 10 -13 35 5 31
22 115 124 160 194 36 56 62 139 63 201 0 50 1 52 18 37 10 -9 18 -22 18 -30
0 -7 9 -41 20 -74 25 -72 20 -178 -11 -248 -10 -24 -19 -57 -19 -73 0 -23 -14
-43 -59 -89 -60 -60 -81 -71 -81 -44 0 19 0 19 -73 -11 -56 -24 -70 -26 -142
-20 -44 4 -121 13 -172 22 -69 11 -103 12 -135 4 -24 -6 -51 -12 -61 -15 -9
-2 -21 -6 -26 -10 -14 -8 -75 70 -116 149 -42 80 -55 168 -45 301 4 44 5 82 3
84 -1 2 -13 -18 -25 -45 -19 -42 -22 -66 -22 -164 0 -133 15 -196 69 -281 35
-56 103 -115 180 -158 22 -12 58 -33 80 -45 98 -55 268 -50 440 15 85 32 193
143 258 266 l47 90 0 115 c0 62 -6 137 -13 165 -13 48 -91 183 -106 183 -4 0
-36 25 -70 56 -63 58 -94 71 -241 104 -73 16 -81 17 -165 10z m-5 -76 c0 -8
-4 -12 -10 -9 -5 3 -10 13 -10 21 0 8 5 12 10 9 6 -3 10 -13 10 -21z m218 7
c3 -8 -1 -12 -9 -9 -7 2 -15 10 -17 17 -3 8 1 12 9 9 7 -2 15 -10 17 -17z
m-218 -286 c-7 -9 -15 -13 -17 -11 -7 7 7 26 19 26 6 0 6 -6 -2 -15z m259
-157 c-8 -14 -14 -18 -17 -10 -4 13 17 46 25 38 3 -2 -1 -15 -8 -28z m-449
-218 c0 -5 -4 -10 -10 -10 -5 0 -10 5 -10 10 0 6 5 10 10 10 6 0 10 -4 10 -10z
m65 -31 c4 -6 5 -12 4 -14 -7 -7 -59 8 -59 16 0 13 47 11 55 -2z"/>
<path d="M4173 1835 c-49 -52 -59 -84 -12 -39 36 34 74 84 63 84 -4 0 -27 -20
-51 -45z"/>
<path d="M4906 1269 c-16 -16 -17 -19 -4 -19 9 0 19 7 22 16 9 24 4 24 -18 3z"/>
<path d="M4585 1250 c-8 -13 5 -13 25 0 13 8 13 10 -2 10 -9 0 -20 -4 -23 -10z"/>
</g>
</svg>
