<?xml version="1.0" standalone="no"?>
<!DOCTYPE svg PUBLIC "-//W3C//DTD SVG 20010904//EN"
 "http://www.w3.org/TR/2001/REC-SVG-20010904/DTD/svg10.dtd">
<svg version="1.0" xmlns="http://www.w3.org/2000/svg"
 width="368.000000pt" height="275.000000pt" viewBox="0 0 368.000000 275.000000"
 preserveAspectRatio="xMidYMid meet">

<g transform="translate(0.000000,275.000000) scale(0.100000,-0.100000)"
fill="#000000" stroke="none">
<path d="M1601 2678 c-42 -40 -88 -84 -104 -98 l-28 -24 -109 54 c-73 36 -113
51 -120 44 -7 -7 0 -54 20 -144 16 -74 30 -143 30 -154 0 -10 -32 -63 -70
-117 -78 -109 -86 -124 -71 -134 6 -3 60 8 119 24 59 17 112 31 118 31 5 0 46
-52 89 -115 74 -106 96 -128 108 -107 3 4 10 68 17 142 6 74 13 136 15 138 2
3 75 23 162 46 202 53 204 59 43 126 l-115 48 3 150 c3 189 0 191 -107 90z
m58 -136 c-1 -65 0 -123 4 -128 3 -6 44 -25 91 -44 47 -19 86 -37 86 -40 0 -3
-60 -21 -134 -39 l-134 -32 -6 -37 c-3 -20 -6 -59 -7 -87 -1 -27 -4 -63 -8
-80 -6 -29 -8 -28 -71 63 -35 50 -71 92 -79 92 -8 0 -48 -9 -89 -21 -40 -11
-75 -19 -78 -17 -2 2 21 40 52 84 l55 79 -26 125 c-13 68 -23 125 -21 127 2 3
40 -14 85 -36 44 -23 89 -41 99 -41 9 0 51 34 92 75 41 41 78 75 83 75 5 0 7
-53 6 -118z"/>
<path d="M270 1725 l-52 -97 -67 8 c-99 12 -144 11 -149 -4 -2 -7 37 -55 88
-106 l91 -94 -45 -91 c-25 -50 -46 -95 -46 -101 0 -26 38 -19 127 21 l96 43
62 -69 c47 -52 66 -67 80 -61 16 6 17 16 11 114 -7 102 -6 109 14 127 12 11
50 51 83 89 55 61 59 70 44 81 -9 7 -53 15 -98 18 -44 3 -83 7 -85 10 -3 2
-17 49 -33 103 -39 137 -51 138 -121 9z m85 -72 c10 -38 22 -73 27 -80 5 -7
41 -15 79 -19 l69 -7 -60 -67 -60 -68 0 -68 0 -68 -44 43 -45 44 -63 -27 c-35
-16 -69 -30 -76 -33 -8 -3 3 27 23 66 41 83 44 72 -44 164 l-56 57 50 -7 c90
-12 87 -14 130 64 22 40 43 73 46 73 3 0 14 -30 24 -67z"/>
<path d="M1703 1731 c-81 -30 -155 -84 -146 -107 8 -20 19 -18 70 17 52 36
139 69 184 69 43 0 89 -47 89 -93 0 -43 -48 -138 -98 -197 l-39 -44 -59 64
c-76 82 -185 153 -288 187 -69 22 -99 27 -201 27 -100 1 -132 -3 -190 -22
-214 -71 -331 -195 -385 -406 -24 -94 -27 -245 -6 -323 29 -109 92 -220 175
-306 53 -56 57 -48 -63 -120 -57 -34 -80 -42 -133 -45 -61 -4 -64 -3 -98 31
-31 31 -35 41 -35 89 0 64 29 115 108 192 47 46 58 76 27 76 -23 0 -131 -115
-155 -166 -51 -103 -22 -216 64 -255 79 -36 153 -19 286 66 l89 56 50 -26
c153 -77 417 -73 578 9 139 70 252 213 307 389 5 16 39 17 533 17 l528 0 375
-375 c206 -206 380 -375 386 -375 7 0 15 8 18 17 5 13 -84 108 -376 400 l-384
383 -533 0 -534 0 6 48 c8 70 -9 183 -39 257 l-26 66 56 72 c107 140 126 234
62 304 -30 33 -39 37 -92 40 -41 2 -75 -3 -111 -16z m-378 -136 c120 -21 231
-80 322 -171 40 -40 73 -80 73 -89 0 -21 -129 -163 -296 -325 -134 -130 -335
-299 -463 -388 l-60 -42 -36 31 c-53 47 -123 149 -158 232 -78 186 -27 476
108 610 72 71 198 131 309 147 78 11 114 11 201 -5z m450 -367 c26 -77 31
-228 11 -308 -55 -212 -210 -366 -422 -416 -92 -22 -255 -14 -339 15 -33 12
-63 25 -68 30 -5 5 21 29 57 55 192 137 475 391 630 565 55 61 103 111 106
111 4 0 15 -24 25 -52z"/>
<path d="M2280 704 c-36 -30 -88 -73 -115 -94 l-50 -39 -120 19 c-118 17 -145
17 -145 -2 0 -5 35 -48 78 -95 42 -47 76 -89 75 -93 -1 -3 -29 -57 -62 -118
-53 -98 -66 -142 -42 -142 3 0 62 23 130 52 l124 52 66 -74 c184 -208 187
-209 177 -61 -4 53 -9 110 -12 126 -5 30 -4 31 121 90 70 32 129 65 132 73 8
19 -3 25 -139 73 l-118 41 -1 97 c-1 101 -8 143 -24 147 -6 2 -39 -22 -75 -52z
m128 -250 c42 -15 92 -33 111 -41 l34 -13 -108 -53 -108 -52 6 -97 c3 -54 4
-98 2 -98 -2 0 -40 43 -86 95 -46 52 -91 95 -100 95 -10 0 -54 -16 -99 -35
-45 -19 -86 -35 -91 -35 -4 0 15 45 44 99 l52 100 -59 60 c-33 33 -58 63 -55
66 3 2 32 0 65 -5 112 -19 117 -17 217 65 l92 75 3 -99 3 -99 77 -28z"/>
</g>
</svg>
