<?xml version="1.0" standalone="no"?>
<!DOCTYPE svg PUBLIC "-//W3C//DTD SVG 20010904//EN"
 "http://www.w3.org/TR/2001/REC-SVG-20010904/DTD/svg10.dtd">
<svg version="1.0" xmlns="http://www.w3.org/2000/svg"
 width="692.000000pt" height="690.000000pt" viewBox="0 0 692.000000 690.000000"
 preserveAspectRatio="xMidYMid meet">

<g transform="translate(0.000000,690.000000) scale(0.100000,-0.100000)"
fill="#000000" stroke="none">
<path d="M5340 5750 c0 -5 5 -10 10 -10 6 0 10 5 10 10 0 6 -4 10 -10 10 -5 0
-10 -4 -10 -10z"/>
<path d="M5282 5723 c-7 -3 -21 -21 -31 -42 -16 -31 -27 -39 -69 -50 -28 -7
-58 -21 -68 -32 -21 -24 -117 -26 -160 -4 -16 8 -37 15 -46 15 -9 0 -30 8 -47
17 -16 10 -33 14 -38 10 -12 -13 19 -59 56 -84 19 -13 43 -37 52 -53 18 -29
104 -78 116 -66 3 3 1 17 -5 31 -17 36 -15 45 8 45 13 0 25 -11 34 -33 21 -52
60 -77 117 -77 27 0 49 4 49 8 0 5 -27 32 -60 61 -33 29 -60 57 -60 61 0 4 8
10 18 14 9 3 28 10 40 16 20 8 25 7 29 -9 3 -11 12 -22 21 -25 10 -4 30 -14
46 -22 28 -16 119 -25 131 -12 19 18 -9 44 -67 63 -60 19 -98 44 -98 64 0 19
20 21 60 5 53 -21 124 -14 172 17 63 41 51 50 -67 47 -97 -3 -120 1 -95 17 28
17 -3 32 -38 18z"/>
<path d="M3099 5659 c-195 -14 -202 -26 -170 -288 13 -102 25 -232 28 -288 l6
-103 -104 -2 c-330 -7 -359 -15 -344 -100 4 -24 11 -88 15 -143 5 -55 13 -131
20 -170 12 -78 4 -178 -14 -172 -6 2 -27 34 -47 71 -20 38 -53 84 -73 102
l-38 34 7 65 c7 60 6 65 -18 89 -59 58 -112 20 -192 -138 -34 -65 -69 -122
-79 -128 -30 -17 -163 -4 -191 18 -12 10 -45 37 -73 59 -27 22 -57 55 -66 73
-17 34 -36 35 -36 3 0 -15 -11 -19 -67 -25 -38 -3 -79 -8 -93 -10 -14 -2 -31
-5 -39 -5 -11 -1 -11 -4 -1 -16 36 -43 121 -57 195 -30 56 20 62 19 73 -15 8
-22 8 -32 -1 -37 -23 -14 -112 -46 -144 -50 -46 -7 -41 -27 9 -46 52 -19 118
-10 152 22 30 28 86 29 104 0 12 -19 10 -24 -17 -48 -41 -37 -39 -51 7 -49 45
1 102 29 120 57 8 13 22 21 40 21 l29 0 0 -79 c2 -147 81 -375 164 -473 l40
-48 -43 0 c-58 0 -78 -16 -89 -74 -18 -96 26 -202 122 -290 34 -32 87 -68 117
-82 59 -26 59 -32 2 -54 -72 -29 -156 -85 -231 -158 -119 -113 -159 -185 -130
-231 11 -17 42 -18 184 -6 67 5 141 4 229 -5 103 -11 156 -11 252 -2 181 17
270 55 394 166 29 27 58 45 65 42 6 -3 48 -26 92 -51 135 -76 208 -109 260
-117 158 -26 213 -22 251 19 l24 25 34 -30 c50 -44 115 -80 176 -98 61 -18 77
-10 36 20 -87 63 -164 123 -191 148 -16 15 -33 28 -37 28 -17 0 -99 127 -117
182 -44 139 -51 327 -15 418 16 39 18 40 64 40 82 0 157 -67 239 -215 95 -172
134 -377 111 -588 -9 -93 -10 -124 0 -141 10 -19 7 -33 -13 -84 -14 -33 -38
-80 -55 -104 -43 -62 -175 -178 -203 -178 -23 0 -233 -111 -277 -147 -70 -57
-101 -141 -68 -188 7 -11 16 -30 20 -42 6 -19 3 -23 -12 -23 -31 0 -44 -25
-40 -77 l3 -48 -40 -8 c-22 -5 -50 -11 -62 -13 -25 -5 -40 -41 -24 -57 8 -8
11 -5 11 11 0 30 24 38 148 51 142 15 201 14 263 -6 87 -27 307 -179 287 -198
-3 -3 -70 0 -149 6 -79 6 -198 9 -264 6 -66 -4 -167 -9 -225 -11 -58 -3 -130
-12 -160 -21 -76 -21 -90 -19 -90 8 0 56 51 84 160 86 30 1 83 6 116 11 34 6
131 10 215 11 103 1 146 4 131 10 -46 18 -385 14 -531 -7 -68 -9 -90 -23 -101
-65 -6 -20 -8 -43 -5 -52 5 -11 -7 -15 -61 -20 -67 -5 -113 -27 -122 -58 -3
-8 6 -4 21 9 26 25 14 23 362 52 155 13 455 19 619 11 123 -6 130 -7 147 -31
10 -14 22 -40 25 -59 l7 -34 -44 6 c-241 36 -708 39 -1007 7 -112 -12 -205
-20 -207 -18 -7 6 14 97 30 130 55 115 92 149 316 291 45 28 60 44 69 74 7 21
16 43 19 48 8 11 7 22 -2 45 -3 8 -11 31 -17 52 -12 40 -92 121 -131 133 -13
4 -31 13 -39 20 -8 6 -35 20 -59 29 -67 26 -231 125 -278 169 -79 73 -143 203
-159 327 -4 29 -11 47 -17 43 -15 -9 -2 -181 19 -233 31 -78 94 -168 157 -226
60 -53 90 -70 312 -174 100 -47 145 -83 145 -116 0 -32 -79 -98 -172 -145 -43
-22 -78 -41 -78 -44 0 -2 7 -2 16 2 9 3 19 1 23 -5 5 -8 25 0 61 24 100 65
150 82 150 49 0 -8 -7 -15 -15 -15 -14 0 -67 -26 -114 -55 -61 -39 -111 -73
-139 -97 -18 -15 -37 -28 -42 -28 -17 0 -11 21 13 40 12 10 19 22 15 25 -11
11 -132 -116 -164 -171 -15 -27 -33 -56 -39 -64 -7 -8 -23 -48 -35 -88 -13
-40 -29 -71 -34 -69 -13 5 -12 14 8 84 21 75 88 184 164 266 14 15 21 27 14
27 -19 0 -158 -143 -180 -185 -27 -55 -52 -142 -52 -184 0 -34 -4 -38 -50 -60
-105 -50 -129 -104 -84 -190 21 -42 31 -52 47 -47 11 2 55 1 98 -4 57 -7 114
-5 205 6 69 8 142 14 162 13 56 -2 627 12 630 16 16 16 -532 26 -557 10 -5 -3
-76 -10 -158 -15 -81 -6 -173 -13 -204 -16 -124 -13 -214 45 -207 132 3 34 8
42 45 62 39 21 63 23 63 3 0 -4 -18 -15 -40 -24 -34 -13 -40 -20 -40 -44 0
-18 9 -38 24 -52 20 -19 28 -21 45 -11 12 6 31 8 42 5 12 -4 36 -7 55 -7 43 0
44 -14 2 -28 -27 -8 -21 -9 32 -4 119 10 333 25 458 31 74 3 118 9 110 14 -8
5 10 9 47 9 42 0 56 -3 45 -10 -10 -7 8 -10 59 -10 67 0 183 -14 221 -26 11
-4 11 -7 2 -13 -7 -4 77 -7 185 -7 165 1 203 -2 228 -15 17 -9 54 -20 83 -24
149 -20 250 73 209 193 -8 23 -12 42 -8 42 3 0 35 -9 69 -20 37 -12 92 -20
130 -20 40 0 77 -6 92 -15 81 -47 111 -49 125 -6 15 47 -78 205 -171 290 l-57
53 18 31 c10 18 35 56 54 86 59 88 73 123 82 197 12 109 -8 172 -61 194 -27
11 -43 10 -113 -9 -120 -31 -222 -85 -284 -148 l-52 -53 -21 40 c-65 128 -223
216 -289 163 -20 -17 -24 -30 -28 -94 -4 -61 -1 -81 16 -113 11 -22 19 -42 16
-44 -6 -6 -215 58 -256 78 -19 10 -41 26 -49 34 -7 9 -21 14 -31 11 -13 -4
-20 2 -28 28 -13 39 -6 68 15 60 8 -3 14 0 14 6 0 20 54 59 145 105 119 61
253 163 314 240 57 72 76 107 92 170 9 37 15 46 28 40 36 -15 89 -23 136 -23
39 1 44 3 21 8 -16 3 -31 12 -34 20 -3 10 6 12 46 6 50 -7 177 7 242 27 91 27
220 127 276 213 22 35 26 40 59 81 14 18 25 36 25 42 0 6 16 8 40 5 31 -4 40
-2 40 9 0 22 -21 37 -97 67 -77 32 -92 51 -38 51 51 0 107 32 151 85 47 58 80
75 143 75 80 0 158 42 121 65 -5 3 -25 29 -44 58 -58 88 -93 115 -176 137 -93
24 -151 25 -193 3 l-32 -17 80 -8 c55 -6 97 -17 134 -36 l55 -27 -70 -7 c-75
-7 -151 -29 -200 -59 -44 -27 -67 -25 -59 4 4 12 -15 -7 -41 -43 -51 -69 -78
-96 -107 -106 -32 -10 -33 7 -2 31 36 28 35 27 85 93 48 62 80 169 80 267 0
83 23 158 56 180 21 14 28 14 41 3 15 -12 16 -9 10 27 -4 28 -17 50 -42 73
-42 39 -85 42 -194 12 -40 -12 -75 -19 -77 -17 -6 5 27 189 37 208 15 28 21
142 11 209 -6 36 -7 69 -2 73 12 13 -68 87 -93 87 -12 -1 -33 -7 -47 -15 -14
-8 -30 -14 -36 -15 -14 0 -40 53 -51 105 -11 53 -58 82 -105 66 -23 -8 -35 -8
-45 0 -8 7 -62 12 -137 13 l-124 1 -4 45 c-2 25 -1 113 2 195 4 117 2 157 -9
180 -10 22 -13 63 -11 160 2 71 3 146 4 165 0 48 -30 106 -70 137 -53 40 -176
55 -338 40 -97 -8 -145 -8 -197 1 -75 13 -117 13 -280 1z m627 -68 c112 -10
154 -26 173 -68 22 -47 30 -178 16 -234 -7 -27 -14 -102 -15 -166 0 -65 -4
-145 -8 -178 -4 -33 -4 -128 0 -210 7 -139 2 -340 -8 -357 -4 -6 9 -93 23
-158 3 -14 6 -106 7 -205 1 -99 5 -197 10 -218 l8 -38 -38 7 c-22 4 -49 11
-62 15 -31 12 -163 11 -182 -1 -10 -6 -20 -4 -33 8 -11 9 -53 35 -95 57 -72
37 -79 44 -107 101 -16 34 -36 69 -44 78 -21 25 -63 16 -79 -16 -20 -42 -34
-135 -30 -200 2 -32 2 -58 1 -58 -1 0 -23 9 -50 21 -72 31 -177 59 -225 59
-24 0 -53 3 -66 6 -22 6 -21 8 17 49 27 29 45 63 57 102 19 67 50 133 63 133
17 0 71 97 71 127 0 53 -29 68 -134 68 -50 0 -94 4 -98 10 -4 6 -13 2 -22 -10
-14 -18 -15 -18 -16 -2 0 9 -12 23 -26 29 -22 10 -31 9 -56 -5 l-30 -17 6 26
c5 17 1 35 -9 51 -9 14 -15 27 -12 29 2 3 27 7 56 11 l51 6 15 -37 c27 -63 64
-34 51 40 -9 43 -39 64 -94 64 -67 0 -106 -21 -125 -68 -15 -37 -15 -45 -1
-86 20 -57 42 -71 89 -56 19 6 45 10 57 8 18 -2 11 -9 -36 -32 -33 -16 -79
-49 -102 -72 l-43 -42 -27 81 c-15 45 -35 92 -45 105 -16 21 -16 24 3 71 20
46 20 53 7 107 -12 48 -12 68 -3 104 17 62 16 150 -1 180 -22 39 -19 69 10 80
14 5 76 13 138 16 61 4 117 10 122 14 6 4 31 10 56 14 l46 7 11 -38 c6 -21 13
-117 15 -213 3 -181 15 -245 29 -160 4 25 11 151 14 280 5 198 3 268 -15 445
-11 116 -23 230 -25 256 -3 25 -1 51 3 58 15 24 529 39 737 22z m-1404 -966
c4 -49 10 -60 54 -107 28 -29 59 -66 69 -83 11 -16 38 -55 61 -85 55 -74 65
-95 80 -165 22 -102 18 -229 -11 -315 -37 -109 -36 -108 -87 -90 -26 9 -44 22
-46 34 -2 10 -33 57 -68 105 -35 47 -80 116 -99 152 -35 67 -35 67 -35 200 0
124 9 221 26 277 10 36 -13 26 -25 -11 -6 -18 -18 -71 -26 -116 -8 -46 -17
-87 -21 -90 -3 -3 -4 35 -2 84 4 93 28 165 78 236 32 44 47 37 52 -26z m1867
38 c164 -7 186 -17 216 -97 l17 -44 -57 -69 c-73 -89 -125 -196 -125 -260 0
-43 -3 -48 -22 -50 -13 0 -32 -3 -43 -5 -15 -2 -19 2 -17 15 2 10 -2 24 -8 32
-11 13 -4 64 9 66 43 5 91 35 91 56 0 13 -13 15 -71 11 -77 -4 -99 -19 -99
-65 0 -26 0 -26 -35 -13 -27 10 -62 -1 -77 -24 -4 -6 -10 -7 -14 -3 -6 6 11
64 36 122 15 34 18 168 5 195 -22 46 -25 87 -8 120 12 25 20 30 37 26 11 -3
86 -9 165 -13z m361 -181 c0 -10 6 -24 13 -30 8 -9 13 -52 14 -128 3 -198 -56
-360 -162 -441 -64 -50 -71 -45 -74 52 -5 167 66 385 149 460 29 26 24 38 -9
21 -81 -42 -136 -151 -157 -310 -8 -60 -16 -111 -18 -113 -2 -2 -6 24 -9 57
-14 130 66 343 139 370 13 5 24 15 24 23 0 12 64 56 83 57 4 0 7 -8 7 -18z
m-2368 -202 c-11 -95 120 -353 244 -480 45 -46 53 -60 32 -60 -19 0 -99 89
-155 173 -98 146 -153 274 -153 360 0 31 3 38 18 35 11 -3 16 -12 14 -28z
m868 -41 c0 -6 -30 -70 -67 -142 -71 -137 -115 -192 -182 -227 -48 -24 -79
-25 -108 -5 -69 48 -7 173 124 247 29 16 53 34 53 38 0 14 -84 -10 -122 -35
-48 -32 -52 -31 -34 3 18 34 62 75 104 96 55 28 232 47 232 25z m1192 -168
c12 -46 4 -48 -21 -6 -25 44 -26 47 -4 43 9 -2 21 -18 25 -37z m-234 -26 c-6
-14 -13 -23 -15 -21 -5 5 15 46 22 46 3 0 -1 -11 -7 -25z m200 -141 c50 -41
65 -78 58 -141 -6 -53 -48 -151 -70 -165 -88 -58 -179 191 -135 367 l11 44 52
-39 c28 -21 66 -51 84 -66z m596 40 c22 -9 20 -37 -8 -92 -14 -27 -30 -77 -36
-113 -43 -245 -51 -266 -147 -366 -57 -61 -84 -83 -172 -143 -66 -44 -68 -42
-59 48 10 102 35 195 70 261 15 30 28 60 28 67 0 7 13 28 28 46 15 18 43 56
60 85 32 50 91 110 162 166 23 18 29 27 18 27 -33 0 -154 -112 -244 -226 -83
-107 -152 -279 -180 -452 -12 -77 -20 -102 -39 -119 -13 -13 -27 -23 -30 -23
-3 0 -5 18 -5 41 0 34 3 40 16 35 15 -6 16 0 9 41 -4 27 -10 95 -14 153 -10
175 19 249 147 372 88 86 178 143 271 173 81 26 100 29 125 19z m-1442 -117
c36 -36 75 -90 81 -112 20 -74 20 -75 -18 -75 -29 0 -39 6 -55 32 -11 18 -22
53 -25 78 -3 25 -8 57 -10 73 -5 33 -2 33 27 4z m1028 -26 c0 -6 -14 -25 -31
-43 -47 -50 -100 -167 -138 -305 -6 -24 -16 -43 -22 -43 -14 0 -1 85 21 135
10 22 21 51 25 65 18 59 70 152 97 175 31 26 48 32 48 16z m-834 -30 c23 -10
44 -23 48 -29 6 -11 -22 -102 -33 -102 -4 0 -23 34 -44 75 -40 81 -37 86 29
56z m-571 -11 c77 -7 122 -15 270 -45 14 -3 27 -23 43 -63 14 -36 38 -73 65
-99 43 -42 130 -83 177 -83 23 0 26 -5 38 -66 7 -37 10 -69 7 -72 -3 -3 -18 6
-33 20 -15 13 -56 44 -92 68 -36 23 -87 59 -115 80 -27 20 -66 43 -85 50 -19
7 -47 22 -61 32 -40 27 -103 52 -205 81 -91 26 -204 45 -193 33 3 -3 62 -22
130 -42 149 -42 239 -84 368 -171 167 -113 313 -246 360 -327 14 -24 39 -62
54 -83 33 -47 28 -69 -17 -77 -44 -8 -174 17 -228 45 -67 34 -278 158 -328
193 -156 108 -295 236 -361 333 -27 40 -67 90 -89 112 -43 42 -51 74 -22 90
17 11 143 7 317 -9z m-641 -36 c160 -40 255 -97 340 -202 29 -37 70 -83 90
-101 49 -48 47 -60 -11 -54 -114 11 -232 75 -356 192 -41 39 -77 71 -81 71 -4
0 3 -18 15 -41 23 -39 102 -121 164 -167 l30 -23 -35 7 c-83 15 -177 80 -222
153 -20 31 -52 141 -42 141 3 0 16 -8 31 -17 l26 -17 -17 32 c-26 50 -25 50
68 26z m1608 -70 c84 -43 142 -122 192 -261 36 -100 36 -103 34 -242 -2 -147
-11 -175 -22 -69 -4 35 -18 104 -32 153 -14 50 -28 104 -33 122 -5 18 -18 47
-30 65 -11 18 -31 53 -42 78 -22 46 -72 113 -118 157 l-26 25 25 -7 c14 -4 37
-14 52 -21z m1223 -174 c28 -23 17 -37 -28 -37 -58 0 -117 -33 -168 -93 -55
-65 -129 -101 -213 -103 -45 -2 -69 3 -90 16 -25 17 -26 20 -13 40 43 66 204
167 298 187 57 12 196 5 214 -10z m-2293 -157 c7 -6 31 -14 53 -18 43 -7 110
-38 120 -56 14 -21 -6 -22 -44 -1 -21 12 -47 22 -58 22 -10 0 -45 9 -78 21
-50 18 -75 20 -165 16 -58 -3 -145 -14 -195 -25 -84 -18 -115 -16 -101 6 3 5
22 12 43 16 21 3 70 12 108 20 80 17 296 16 317 -1z m-194 -72 c17 -10 -55
-41 -97 -41 -87 0 -230 -71 -341 -169 -71 -63 -110 -81 -110 -52 0 56 135 171
255 216 108 40 264 65 293 46z m305 -40 c72 -7 115 -34 104 -65 -4 -9 -39 -36
-79 -62 -40 -25 -82 -55 -94 -65 -29 -27 -148 -59 -219 -59 -33 0 -77 -5 -98
-11 -32 -9 -51 -7 -107 10 -49 15 -96 21 -164 21 -53 0 -96 4 -96 9 0 11 75
66 143 105 65 37 120 55 204 67 40 5 103 23 140 39 73 32 72 32 266 11z m1602
-41 c-11 -5 -45 -16 -75 -25 -79 -24 -139 -56 -214 -114 -52 -40 -66 -47 -66
-33 0 42 153 150 245 173 44 10 136 10 110 -1z m215 -85 l24 -25 -48 -69 c-26
-38 -80 -100 -120 -138 -114 -108 -224 -139 -385 -111 -98 17 -106 30 -59 100
111 167 292 264 499 267 58 1 68 -2 89 -24z m-806 -969 c27 -11 38 -25 54 -68
43 -116 84 -249 79 -255 -8 -7 -136 111 -160 147 -27 42 -36 190 -12 190 3 0
21 -6 39 -14z m660 -38 c5 -21 1 -30 -22 -47 l-27 -20 24 -1 c22 0 23 -3 17
-40 -13 -82 -47 -150 -105 -212 -47 -50 -64 -61 -103 -68 -44 -9 -121 -54
-174 -102 -24 -22 -28 -18 -39 30 -5 26 0 44 28 95 20 34 54 83 77 109 41 48
181 148 205 148 7 0 18 7 25 15 16 20 1 20 -63 0 -49 -15 -157 -86 -189 -123
-29 -36 -98 -155 -98 -171 0 -11 -3 -12 -11 -4 -19 19 16 157 56 223 65 106
136 155 283 194 94 25 105 22 116 -26z m-527 -80 c25 -56 45 -138 38 -155 -6
-14 -11 -6 -22 32 -7 28 -19 71 -27 98 -15 48 -7 65 11 25z m-572 -48 c4 -6
25 -20 48 -32 41 -21 41 -22 17 -28 -14 -3 -54 -6 -90 -6 l-65 1 4 30 c1 17 5
33 8 38 6 11 71 9 78 -3z m-651 -231 c-9 -11 -19 -17 -21 -15 -8 7 21 45 30
39 4 -3 1 -14 -9 -24z m1652 -118 c18 -11 59 -59 93 -107 61 -87 77 -122 43
-91 -10 9 -27 14 -38 11 -27 -7 -208 38 -269 68 -77 36 -67 53 31 51 65 -1 91
-6 131 -26 27 -14 55 -33 62 -41 16 -19 31 -21 31 -5 0 24 -76 87 -120 99 -80
22 -77 20 -51 41 29 24 48 24 87 0z m-270 -112 l16 -32 -29 7 c-39 10 -47 21
-28 40 22 21 22 21 41 -15z m-568 -46 c13 -13 41 -7 55 11 6 8 10 8 13 0 3 -8
28 -10 75 -6 39 3 132 -1 207 -8 110 -10 145 -17 178 -35 49 -29 69 -51 54
-60 -10 -6 -67 8 -102 26 -10 5 -27 9 -37 9 -11 0 -46 7 -78 16 -41 11 -122
16 -281 20 -123 2 -228 7 -233 10 -6 3 -5 11 2 20 15 18 128 16 147 -3z m295
-50 c-7 -2 -19 -2 -25 0 -7 3 -2 5 12 5 14 0 19 -2 13 -5z m162 -35 c7 -7 -6
-9 -38 -5 -27 2 -54 10 -60 17 -9 9 -1 10 38 5 28 -4 55 -12 60 -17z m-845 -7
c0 -11 -35 -21 -73 -21 -39 0 -26 17 14 18 17 0 34 3 37 6 8 9 22 7 22 -3z
m635 -32 c33 -7 98 -14 145 -16 47 -2 102 -6 123 -9 33 -6 39 -3 44 15 6 25
38 28 47 5 8 -20 -9 -50 -35 -64 -28 -15 -75 -15 -214 4 -201 26 -286 35 -380
42 -49 3 -106 7 -125 9 -19 1 -61 3 -92 4 -32 0 -58 5 -58 10 0 5 8 7 18 5 9
-3 35 -1 57 4 56 13 398 6 470 -9z m251 6 c16 -12 16 -14 3 -15 -9 0 -22 7
-29 15 -16 19 0 19 26 0z m-1021 -55 c3 -5 -1 -10 -10 -10 -9 0 -13 5 -10 10
3 6 8 10 10 10 2 0 7 -4 10 -10z m639 -19 c19 -7 19 -8 -1 -13 -21 -6 -113 9
-113 18 0 7 94 3 114 -5z"/>
<path d="M3422 5300 c-14 -15 -37 -22 -95 -26 -42 -4 -77 -11 -77 -15 0 -12
35 -29 59 -29 28 0 26 -12 -6 -40 l-27 -23 -21 27 c-11 14 -28 26 -38 26 -22
0 -22 -3 9 -56 29 -49 62 -58 96 -27 22 19 25 17 30 -21 3 -28 1 -30 -37 -31
-54 -2 -103 12 -114 33 -4 9 -11 33 -15 54 -7 39 -32 58 -40 30 -14 -49 -15
-99 -4 -121 30 -56 159 -88 233 -57 45 19 56 49 51 134 -3 56 0 72 17 97 12
17 25 33 30 36 13 9 0 29 -18 29 -8 0 -23 -9 -33 -20z"/>
<path d="M3578 5283 c-16 -2 -28 -8 -28 -13 0 -14 39 -21 90 -18 48 3 48 2 28
-50 -10 -26 -10 -36 0 -52 19 -31 15 -37 -33 -38 -43 -2 -45 -1 -45 26 0 50
-65 151 -84 131 -3 -3 -1 -21 4 -40 6 -18 10 -59 10 -90 0 -74 24 -99 96 -99
85 0 121 43 123 147 0 55 -2 64 -26 82 -25 21 -65 25 -135 14z"/>
<path d="M3200 5260 c0 -5 7 -10 15 -10 8 0 15 5 15 10 0 6 -7 10 -15 10 -8 0
-15 -4 -15 -10z"/>
<path d="M3282 4910 c-44 -10 -48 -16 -21 -30 17 -10 30 -9 61 1 52 17 61 6
46 -61 l-11 -55 -62 -2 -62 -1 -12 49 c-7 26 -10 57 -6 69 7 21 -1 25 -23 11
-16 -10 -31 -71 -32 -128 0 -62 28 -78 118 -69 96 10 134 31 151 84 33 106
-28 160 -147 132z"/>
<path d="M3602 4890 c-46 -11 -49 -18 -16 -30 20 -8 35 -8 52 -1 47 22 55 16
47 -36 -5 -27 -8 -56 -7 -66 1 -12 -5 -16 -21 -13 -12 3 -39 8 -59 11 -29 4
-38 11 -38 25 0 10 -5 22 -11 26 -6 3 -9 17 -6 31 3 17 -2 27 -16 34 -26 15
-37 -3 -37 -63 0 -90 20 -113 117 -128 99 -16 143 22 143 126 0 34 -6 48 -27
69 -29 26 -59 30 -121 15z"/>
<path d="M2792 4757 c-46 -12 -50 -27 -9 -41 21 -8 31 -6 47 9 28 25 32 17 14
-34 -8 -23 -12 -47 -9 -52 7 -11 -65 -12 -81 -1 -14 9 -33 72 -26 90 3 9 -3
13 -19 10 -18 -2 -25 -12 -32 -41 -12 -49 -3 -81 31 -112 48 -44 165 -25 191
32 18 39 13 97 -10 127 -22 28 -30 29 -97 13z"/>
<path d="M3263 4583 c-40 -5 -43 -20 -7 -34 19 -6 37 -6 61 2 19 6 37 9 39 6
3 -3 3 -30 -1 -61 l-7 -56 -42 0 c-22 0 -46 4 -53 8 -16 10 -43 75 -43 102 0
15 -5 20 -17 18 -13 -2 -20 -16 -23 -44 -13 -93 37 -154 126 -154 75 0 107 25
124 94 25 107 -14 137 -157 119z"/>
<path d="M3516 4548 c-9 -36 -6 -100 7 -138 9 -26 21 -38 47 -47 81 -27 144
-10 172 47 27 53 23 96 -11 131 -27 26 -35 29 -98 29 l-68 -1 24 -20 c20 -16
32 -19 69 -13 l45 7 -8 -39 c-4 -22 -8 -51 -9 -66 -1 -22 -5 -26 -22 -22 -26
7 -56 12 -70 13 -7 1 -14 16 -17 34 -10 61 -20 92 -31 99 -18 12 -23 9 -30
-14z"/>
<path d="M3293 4257 c-49 -12 -54 -23 -19 -38 19 -9 29 -7 51 7 l27 18 -8 -35
c-4 -18 -8 -44 -8 -56 -1 -20 -6 -23 -42 -23 -51 0 -68 18 -69 71 0 30 -4 39
-17 39 -24 0 -38 -31 -38 -80 0 -60 43 -100 109 -100 65 0 107 28 121 81 14
49 8 76 -20 107 -23 24 -24 24 -87 9z"/>
<path d="M3601 4239 c-29 -10 -57 -17 -61 -14 -4 2 -12 -6 -18 -20 -14 -31 6
-138 31 -163 14 -13 33 -17 83 -16 87 1 115 26 125 111 8 73 -7 108 -52 117
-42 8 -45 8 -108 -15z m94 -19 c3 -6 1 -26 -6 -45 -11 -30 -11 -37 6 -55 18
-19 18 -20 -1 -20 -10 0 -35 -3 -55 -6 -36 -6 -36 -6 -53 44 -20 64 -21 62 12
62 15 0 36 7 46 15 23 17 42 19 51 5z"/>
<path d="M4182 4588 c3 -7 13 -18 24 -23 44 -23 45 -25 29 -55 -8 -16 -15 -38
-15 -50 0 -18 -3 -19 -21 -10 -11 7 -31 9 -44 6 -19 -5 -25 1 -44 45 -12 31
-26 49 -33 47 -14 -5 -23 -87 -14 -123 10 -41 81 -56 158 -35 45 13 68 43 68
88 0 39 -32 107 -55 116 -28 10 -57 7 -53 -6z"/>
<path d="M4150 4580 c0 -5 5 -10 11 -10 5 0 7 5 4 10 -3 6 -8 10 -11 10 -2 0
-4 -4 -4 -10z"/>
<path d="M2930 4184 c-25 -15 -25 -15 14 -10 22 3 44 10 50 16 16 16 -35 12
-64 -6z"/>
<path d="M4780 5314 c-26 -24 -58 -72 -90 -136 -56 -113 -61 -151 -34 -260 22
-87 35 -108 91 -152 l48 -37 0 -78 c1 -56 6 -85 18 -104 9 -15 17 -28 17 -30
0 -2 -23 -18 -50 -36 -89 -57 -131 -143 -106 -216 15 -44 47 -66 135 -91 47
-14 57 -14 90 -1 20 8 63 23 95 33 46 15 64 26 78 50 12 20 34 38 63 49 25 9
45 20 45 25 0 5 16 18 35 30 42 26 53 61 31 95 -19 29 -55 47 -139 70 l-58 16
27 32 c40 48 55 92 54 161 -1 33 7 98 16 143 15 67 15 84 5 97 -25 30 -82 19
-163 -31 -47 -29 -48 -29 -48 3 0 14 -9 53 -20 87 -18 60 -40 201 -40 263 0
63 -42 70 -100 18z m87 -330 c3 -44 1 -84 -6 -107 -13 -38 -47 -87 -61 -87
-12 0 -39 97 -46 167 -5 43 -1 81 16 147 12 48 19 90 16 93 -3 4 0 13 6 21 10
11 17 -3 40 -75 16 -48 31 -120 35 -159z m-120 -169 c-8 -23 -29 42 -33 99
l-5 61 21 -75 c11 -41 19 -79 17 -85z m325 11 c5 -117 -7 -162 -55 -207 -48
-45 -147 -78 -147 -48 0 27 71 160 114 212 26 32 45 61 42 64 -3 3 -23 -6 -44
-20 -46 -30 -95 -100 -113 -162 -7 -25 -17 -45 -21 -45 -17 0 -6 48 25 110 25
51 45 75 94 112 81 60 102 57 105 -16z m92 -392 c25 -10 20 -18 -41 -65 -31
-24 -74 -60 -95 -80 -30 -28 -52 -38 -102 -47 -35 -7 -75 -12 -89 -12 -30 0
-77 19 -77 31 0 5 27 37 60 72 57 61 63 65 117 71 32 4 81 13 108 21 55 15 95
18 119 9z"/>
<path d="M1725 4700 c-3 -5 -1 -10 4 -10 6 0 11 5 11 10 0 6 -2 10 -4 10 -3 0
-8 -4 -11 -10z"/>
<path d="M4878 3882 c-11 -2 -23 -22 -33 -54 -8 -28 -14 -53 -12 -54 2 -2 18
21 36 52 36 58 36 63 9 56z"/>
<path d="M1475 3731 c-79 -29 -188 -87 -223 -119 -35 -33 -41 -62 -16 -87 13
-12 14 -19 4 -30 -10 -12 -9 -15 3 -15 9 0 19 5 23 11 9 15 102 3 179 -23 243
-82 393 -120 492 -125 99 -6 102 -5 127 20 14 14 26 37 26 51 0 40 -55 93
-140 134 -58 27 -87 48 -111 81 -23 30 -57 56 -107 83 -64 33 -81 38 -140 37
-37 0 -89 -8 -117 -18z m250 -72 c87 -41 78 -47 -72 -45 -145 1 -241 -13 -268
-41 -11 -10 -24 -13 -43 -8 -26 6 -27 7 -7 22 31 23 116 65 160 79 65 21 178
17 230 -7z m69 -88 c35 -6 57 -16 73 -35 13 -15 23 -22 23 -17 0 22 26 9 73
-35 60 -57 61 -74 5 -74 -109 0 -309 35 -341 60 -24 18 -107 52 -174 71 -24 7
-43 16 -43 20 0 15 305 23 384 10z"/>
<path d="M4940 3037 c-8 -7 -24 -29 -34 -50 -63 -123 -281 -284 -391 -288 -16
0 -24 -3 -17 -6 7 -3 49 0 93 6 105 14 203 64 260 132 35 42 117 205 107 214
-2 2 -10 -2 -18 -8z"/>
<path d="M1623 2902 c-106 -35 -203 -131 -269 -268 -55 -112 -54 -216 1 -230
38 -9 62 4 147 81 57 52 99 81 147 100 263 109 291 127 291 187 0 59 -44 107
-98 108 -18 0 -43 6 -55 14 -37 24 -106 27 -164 8z m107 -36 c0 -2 -30 -22
-67 -44 -38 -22 -89 -61 -115 -85 -43 -42 -108 -139 -108 -162 0 -5 42 34 93
86 94 97 161 149 221 174 42 18 95 5 115 -27 12 -20 11 -24 -17 -49 -16 -15
-55 -36 -86 -48 -31 -11 -91 -43 -134 -71 -42 -27 -84 -50 -92 -50 -23 0 -123
-67 -136 -91 -6 -12 -14 -18 -16 -13 -10 16 21 115 52 168 35 62 154 180 201
200 31 14 89 22 89 12z"/>
<path d="M2875 2886 c-22 -7 -54 -20 -72 -29 -31 -16 -73 -61 -73 -78 0 -18
33 -8 60 17 37 35 126 73 172 74 44 0 132 -31 183 -65 42 -29 45 -30 45 -11 0
17 -60 58 -123 85 -55 24 -131 26 -192 7z"/>
<path d="M2176 2880 c-54 -16 -134 -73 -170 -120 -34 -44 -76 -168 -76 -222 0
-10 -3 -18 -7 -19 -5 -1 -25 -2 -46 -3 -21 -2 -50 -12 -65 -23 -38 -28 -75
-99 -83 -158 -8 -61 20 -237 47 -291 37 -74 83 -71 96 7 13 74 19 78 34 20 33
-127 94 -190 186 -194 72 -3 80 14 43 90 -28 57 -28 59 -16 133 23 138 23 143
1 178 -28 45 -66 59 -104 38 -39 -22 -45 -13 -13 21 104 113 177 177 243 214
93 51 130 82 166 138 39 62 38 111 -3 145 -38 33 -76 33 -138 2 -77 -39 -209
-198 -243 -292 -19 -53 -32 -41 -24 22 8 71 23 106 75 175 43 58 82 84 169
115 28 10 52 22 52 26 0 10 -87 9 -124 -2z m187 -82 c16 -12 16 -16 -4 -55
-11 -23 -41 -59 -66 -79 -25 -20 -59 -50 -77 -66 -17 -16 -56 -40 -86 -55 -30
-14 -64 -33 -74 -42 -17 -14 -19 -14 -14 0 7 19 113 181 153 234 52 67 125 94
168 63z m-443 -370 c0 -29 -9 -75 -19 -103 -11 -27 -25 -69 -32 -92 -12 -43
-44 -82 -56 -70 -3 4 4 36 15 71 12 36 26 94 32 130 12 77 28 116 47 116 9 0
13 -15 13 -52z m-98 -68 c-19 -87 -32 -90 -26 -6 3 44 29 104 40 94 2 -3 -4
-42 -14 -88z m239 -118 c4 -19 1 -52 -7 -78 -11 -39 -11 -55 3 -115 11 -51 12
-74 5 -81 -22 -22 -39 10 -46 90 -3 42 -9 110 -12 150 l-7 74 29 -4 c23 -2 30
-9 35 -36z"/>
<path d="M3675 2874 c-53 -16 -104 -54 -73 -54 8 0 32 7 51 15 51 21 126 19
191 -6 55 -20 93 -54 122 -110 18 -36 2 -38 -28 -4 -35 41 -142 89 -197 89
-102 0 -256 -115 -200 -149 6 -4 20 2 32 13 24 22 80 52 97 52 6 0 4 -11 -6
-25 -9 -13 -17 -43 -17 -65 -2 -45 -3 -46 -23 -25 -20 20 -68 19 -85 -1 -8
-10 -23 -14 -41 -12 -21 4 -28 0 -28 -13 0 -31 58 -56 90 -39 13 7 20 4 29
-14 22 -40 62 -56 143 -56 69 0 79 3 144 41 38 23 76 48 84 55 12 12 9 14 -21
14 -25 0 -43 -7 -59 -25 -23 -25 -50 -33 -50 -16 0 5 6 14 14 20 23 19 27 58
11 97 -8 20 -15 38 -15 40 0 7 74 -43 110 -74 l39 -34 16 39 c21 50 13 90 -29
145 -41 53 -111 93 -190 107 -33 6 -60 11 -60 10 -1 0 -23 -7 -51 -15z m96
-227 c-13 -13 -26 -3 -16 12 3 6 11 8 17 5 6 -4 6 -10 -1 -17z"/>
<path d="M2949 2822 c-15 -4 -54 -23 -87 -42 -46 -27 -69 -49 -97 -94 -36 -57
-37 -60 -22 -90 23 -50 115 -93 215 -101 71 -7 86 -5 125 14 24 12 52 30 62
41 14 15 22 17 37 9 27 -15 79 -7 92 14 13 21 -5 37 -34 30 -10 -3 -32 3 -49
12 -29 15 -35 15 -63 0 -34 -16 -47 -13 -30 7 6 8 12 33 14 57 l3 44 48 -41
c27 -23 52 -42 56 -42 16 0 41 38 35 53 -3 10 -10 14 -15 11 -6 -3 -29 12 -52
33 -71 66 -171 101 -238 85z m-61 -224 c29 -29 7 -28 -75 3 -31 12 -29 22 15
66 l37 37 5 -47 c3 -26 11 -52 18 -59z m132 82 c0 -5 -4 -10 -10 -10 -5 0 -10
5 -10 10 0 6 5 10 10 10 6 0 10 -4 10 -10z"/>
<path d="M3525 2740 c-4 -12 -5 -24 -2 -27 3 -2 8 5 12 17 4 12 5 24 2 27 -3
2 -8 -5 -12 -17z"/>
<path d="M5045 2570 c-3 -6 4 -28 17 -51 14 -25 19 -43 12 -47 -6 -4 -16 -22
-23 -39 -16 -40 -8 -91 20 -127 32 -40 49 -19 49 60 0 34 5 66 11 69 19 12 49
-26 49 -63 0 -57 22 -113 60 -151 33 -33 35 -34 38 -14 5 32 -38 142 -60 154
-10 5 -18 16 -18 24 0 12 10 13 48 9 47 -6 72 -25 72 -54 0 -25 58 -89 101
-110 21 -11 41 -20 44 -20 14 0 2 52 -17 74 -36 39 -68 83 -68 94 0 8 61 27
65 20 0 -2 14 -20 29 -42 35 -47 81 -67 141 -62 82 6 77 15 -54 86 -45 24 -81
46 -81 49 0 3 16 17 35 29 l34 24 36 -36 c29 -29 43 -36 75 -36 21 0 42 5 45
10 3 6 15 10 25 10 20 0 36 17 26 27 -5 5 -118 38 -202 59 -15 4 -33 -4 -59
-28 -35 -31 -42 -33 -97 -30 -37 3 -64 -1 -74 -9 -11 -9 -20 -9 -37 -1 -12 6
-39 16 -59 22 -21 6 -56 26 -77 43 -90 73 -95 75 -106 57z"/>
<path d="M5600 2524 c0 -8 5 -12 10 -9 6 3 10 10 10 16 0 5 -4 9 -10 9 -5 0
-10 -7 -10 -16z"/>
<path d="M2979 1873 c-13 -16 -12 -17 4 -4 16 13 21 21 13 21 -2 0 -10 -8 -17
-17z"/>
<path d="M1675 1330 c-76 -8 -64 -12 55 -17 230 -9 426 -8 443 3 34 20 -347
31 -498 14z"/>
<path d="M1353 1191 c-244 -6 -303 -13 -229 -26 43 -9 669 2 781 13 72 7 76 8
44 16 -20 4 -64 4 -99 -2 -34 -5 -80 -5 -103 -1 -23 4 -64 7 -92 7 -27 -1
-163 -4 -302 -7z"/>
<path d="M4672 1190 c-128 -4 -196 -10 -204 -18 -9 -9 13 -12 98 -14 60 -1
118 -1 129 -1 11 1 153 4 317 7 163 3 304 9 314 13 16 6 16 7 -2 14 -23 8
-388 8 -652 -1z"/>
<path d="M2028 1183 c7 -3 16 -2 19 1 4 3 -2 6 -13 5 -11 0 -14 -3 -6 -6z"/>
</g>
</svg>
